<svg id="Layer_1" xmlns="http://www.w3.org/2000/svg" viewBox="0 0 158.5 158.4"><style>.st0{fill-rule:evenodd;clip-rule:evenodd}.st0,.st1{fill:#d7e9ff}.st2,.st3{fill:#8fbeff}.st3,.st4{fill-rule:evenodd;clip-rule:evenodd}.st4,.st5{fill:#4894ff}.st6{fill-rule:evenodd;clip-rule:evenodd}.st6,.st7{fill:#0069ff}.st8{fill:#fff}</style><path class="st0" d="M115.7 7.3c-3 0-5.5-2.5-5.5-5.5 0 3-2.5 5.5-5.5 5.5 3 0 5.5 2.5 5.5 5.5 0-3.1 2.5-5.5 5.5-5.5z"/><path class="st1" d="M110.2 13.5c-.4 0-.8-.4-.8-.8 0-2.6-2.1-4.7-4.7-4.7-.4 0-.8-.4-.8-.8s.4-.8.8-.8c2.6 0 4.7-2.1 4.7-4.7 0-.4.4-.8.8-.8s.8.4.8.8c0 2.6 2.1 4.7 4.7 4.7.4 0 .8.4.8.8s-.4.8-.8.8c-2.6 0-4.7 2.1-4.7 4.7 0 .5-.3.8-.8.8zm-2.4-6.2c1 .6 1.8 1.4 2.4 2.4.6-1 1.4-1.8 2.4-2.4-1-.6-1.8-1.4-2.4-2.4-.5 1-1.4 1.8-2.4 2.4z"/><circle class="st1" cx="75.2" cy="87.6" r="61.1"/><path class="st1" d="M75.2 148.8c-16.4 0-31.7-6.4-43.3-17.9-11.5-11.6-17.9-27-17.9-43.3s6.4-31.7 17.9-43.3 26.9-17.9 43.3-17.9 31.7 6.4 43.3 17.9c11.6 11.6 17.9 26.9 17.9 43.3s-6.4 31.7-17.9 43.3c-11.6 11.5-26.9 17.9-43.3 17.9zm0-122.2c-16.3 0-31.6 6.3-43.2 17.9C20.5 56 14.2 71.3 14.2 87.6s6.3 31.6 17.9 43.2c11.5 11.5 26.9 17.9 43.2 17.9s31.6-6.3 43.2-17.9c11.5-11.5 17.9-26.9 17.9-43.2s-6.3-31.6-17.9-43.2c-11.7-11.5-27-17.8-43.3-17.8z"/><path class="st2" d="M75.2 156.9c-38.2 0-69.3-31.1-69.3-69.3 0-16.7 6-32.8 17-45.4 10.8-12.5 25.7-20.7 42-23.1.5-.1 1.1.3 1.1.8s-.3 1.1-.8 1.1C49.4 23.4 35 31.4 24.4 43.5 13.7 55.7 7.9 71.4 7.9 87.6c0 37.1 30.2 67.3 67.3 67.3s67.3-30.2 67.3-67.3c0-9.6-2-18.9-5.9-27.6-.2-.5 0-1.1.5-1.3.5-.2 1.1 0 1.3.5 4 9 6.1 18.6 6.1 28.5 0 38.1-31.1 69.2-69.3 69.2zm51.2-113.5c-.3 0-.6-.1-.7-.3-7.6-8.6-17.4-15.2-28.2-19-.5-.2-.8-.8-.6-1.3.2-.5.8-.8 1.3-.6 11.1 3.9 21.2 10.7 29 19.5.4.4.3 1-.1 1.4-.2.2-.4.3-.7.3z"/><circle class="st3" cx="67.1" cy="108.7" r="1.1"/><path class="st2" d="M67.1 110.6c-1 0-1.9-.9-1.9-1.9s.9-1.9 1.9-1.9 1.9.9 1.9 1.9-.9 1.9-1.9 1.9zm0-2.2c-.2 0-.3.1-.3.3s.1.3.3.3.3-.1.3-.3-.1-.3-.3-.3zm9.3-9.9c-.4 0-.8-.3-.8-.7 0-.4.3-.8.7-.9.4 0 .9.3.9.7.1.4-.2.8-.6.9h-.2zm-4.8-.6h-.4c-.4-.2-.6-.6-.5-1 .2-.4.6-.6 1-.5.4.2.7.6.5 1 0 .3-.3.5-.6.5zm9.3-1.1c-.3 0-.5-.1-.7-.4-.2-.4-.1-.9.2-1.1.4-.2.9-.2 1.1.2.2.4.2.8-.2 1.1l-.1.1c0 .1-.1.1-.3.1zm-13.4-1.7c-.2 0-.4-.1-.5-.2l-.1-.1c-.3-.3-.2-.8.1-1.1.3-.3.8-.2 1.1.1.3.3.3.9-.1 1.2-.1.1-.3.1-.5.1zm16.7-1.9c-.1 0-.2 0-.4-.1-.4-.2-.6-.7-.3-1.1s.7-.6 1.1-.4.6.6.4 1c-.2.4-.5.6-.8.6zm-18.9-2.4c-.3 0-.7-.2-.7-.6v-.1c-.1-.4.2-.9.6-1 .4-.1.9.2 1 .6.1.4-.2.9-.6 1-.2.1-.3.1-.3.1zm20.1-2.3c-.5 0-.8-.4-.8-.8l.8-.1h-.8c0-.4.4-.8.8-.8s.8.4.8.8v.1c0 .4-.3.8-.8.8zm-20.1-2.6h-.2c-.4-.1-.7-.5-.6-.9v-.1c.1-.4.5-.7 1-.6.4.1.7.5.6 1-.1.3-.4.6-.8.6zm19-2.2c-.3 0-.6-.2-.7-.4-.2-.4-.1-.9.3-1.1.4-.2.8-.1 1.1.3l.1.1c.2.4 0 .9-.4 1.1h-.4zm-16.7-2.1c-.2 0-.4-.1-.5-.2-.3-.3-.4-.8-.1-1.1l.1-.1c.3-.3.8-.4 1.1-.1.3.3.4.8.1 1.1-.2.3-.5.4-.7.4zM81.1 80c-.2 0-.3 0-.5-.1-.4-.3-.5-.8-.2-1.1.3-.4.7-.5 1.1-.2l.1.1c.4.3.4.8.2 1.1-.2.1-.5.2-.7.2zm-9.5-1.2c-.3 0-.7-.2-.8-.5-.2-.4 0-.9.4-1h.1c.4-.2.9 0 1 .5.2.4 0 .9-.5 1h-.2zm4.9-.5s-.1 0 0 0c-.5-.1-.9-.5-.8-.9.1-.4.4-.8.8-.7h.1c.4.1.8.5.7.9 0 .4-.4.7-.8.7z"/><path class="st2" d="M75.2 111c-.5 0-.9-.4-.9-.8s.3-.8.8-.8.8.4.8.8-.2.8-.7.8zm5-.5c-.4 0-.7-.3-.8-.6-.1-.4.2-.9.6-1 .4-.1.9.2 1 .6s-.1.8-.6.9h-.1c0 .1-.1.1-.1.1zm-10 0H70l.2-.8-.3.8c-.4-.1-.7-.5-.6-1 .1-.4.5-.7 1-.6h.1c.4.1.7.5.6 1-.1.3-.4.6-.8.6zm14.8-1.7c-.3 0-.6-.2-.7-.4-.2-.4 0-.9.4-1.1h.1c.4-.2.9 0 1.1.4.2.4 0 .9-.4 1.1l-.5-.8.3.8H85zm-19.6 0c-.1 0-.2 0-.4-.1l.4-.7-.4.7c-.4-.2-.6-.7-.4-1.1.2-.4.7-.6 1.1-.4 0 0 .1 0 .1.1.4.2.6.7.4 1.1-.2.2-.5.4-.8.4zm23.8-2.7c-.2 0-.5-.1-.6-.3-.3-.3-.2-.8.1-1.1l.1-.1c.3-.3.8-.2 1.1.1.3.3.2.8-.1 1.1l-.5-.6.4.7c-.1.2-.3.2-.5.2zm-28.1 0c-.2 0-.3-.1-.5-.2l-.1-.1c-.3-.3-.4-.8-.1-1.1.3-.3.8-.4 1.1-.1.3.3.4.8.2 1.2-.1.2-.4.3-.6.3zm31.7-3.5c-.2 0-.4-.1-.5-.2-.3-.3-.4-.8-.1-1.1.3-.3.8-.4 1.2-.2.3.3.4.7.2 1.1l-.1.1c-.2.2-.4.3-.7.3zm-35.2-.1c-.2 0-.5-.1-.6-.3l.6-.5-.7.4c-.3-.3-.2-.8.1-1.1.3-.3.8-.2 1.1.1l.1.1c.3.3.2.8-.1 1.1-.2.2-.4.2-.5.2zm38-4.2c-.1 0-.2 0-.3-.1-.4-.2-.6-.7-.4-1.1 0 0 0-.1.1-.1.2-.4.7-.6 1.1-.4.4.2.6.7.4 1.1l-.7-.4.7.4c-.4.4-.6.6-.9.6zm-40.7-.1c-.3 0-.6-.2-.7-.5l.7-.3-.8.3c-.2-.4 0-.9.4-1.1.4-.2.9 0 1.1.4v.1c.2.4 0 .9-.4 1.1h-.3zm42.3-4.7H97c-.4-.1-.7-.5-.6-1v-.1c.1-.4.5-.7 1-.6.4.1.7.5.6 1l-.8-.2.8.3c-.1.4-.4.6-.8.6zm-44 0c-.4 0-.7-.3-.8-.6l.8-.2-.8.1c-.1-.4.2-.9.6-1 .4-.1.9.2 1 .6v.1c.1.4-.2.9-.6 1h-.2zm44.6-5.1c-.4 0-.8-.3-.8-.8v-.2c0-.4.4-.8.8-.8s.8.4.8.8v.1c0 .5-.3.9-.8.9zm-45.2 0c-.4 0-.8-.3-.8-.8 0-.4.4-.8.8-.8s.8.3.8.8-.4.8-.8.8zm.6-5H53c-.4-.1-.7-.5-.6-1l.8.2-.8-.3c.1-.4.5-.7 1-.6.4.1.7.5.6 1v.1c-.1.4-.5.6-.8.6zm44.1 0c-.4 0-.7-.2-.8-.6v-.1c-.1-.4.2-.9.6-1 .4-.1.9.2 1 .6l-.8.2.8-.1c.1.4-.2.9-.6 1h-.2zm-42.5-4.8c-.1 0-.2 0-.3-.1-.4-.2-.6-.7-.4-1.1.2-.4.7-.6 1.1-.4.4.2.6.6.4 1v.1c-.2.4-.5.5-.8.5zm40.8 0c-.3 0-.5-.1-.7-.4v-.1c-.2-.4 0-.9.4-1.1.4-.2.9 0 1.1.4.2.4 0 .9-.4 1.1-.2 0-.3.1-.4.1zm-2.7-4.3c-.2 0-.4-.1-.6-.3-.3-.3-.3-.9.1-1.2.3-.3.8-.3 1.1.1.3.3.2.9-.1 1.1-.2.2-.3.3-.5.3zm-35.4 0c-.2 0-.3-.1-.5-.2-.3-.3-.4-.7-.2-1.1l.1-.1c.3-.3.8-.4 1.1-.1.3.3.4.8.1 1.1-.1.3-.3.4-.6.4zm3.6-3.6c-.2 0-.5-.1-.6-.3-.3-.3-.2-.8.1-1.1l.5.6-.4-.7c.3-.3.8-.2 1.1.1.3.3.2.8-.1 1.1l-.1.1c-.2.2-.4.2-.5.2zm28.2 0c-.2 0-.4-.1-.5-.2-.3-.3-.4-.8-.2-1.2.3-.3.7-.4 1.1-.2l.1.1c.3.3.4.8.1 1.1-.1.3-.3.4-.6.4zm-24-2.7c-.3 0-.6-.2-.7-.4-.2-.4 0-.9.4-1.1.4-.2.9 0 1.1.4.2.4.1.9-.3 1.1h-.5zM85 68c-.1 0-.2 0-.3-.1h-.1c-.4-.2-.6-.7-.4-1.1.2-.4.7-.6 1.1-.4.4.2.6.7.4 1.1-.1.3-.4.5-.7.5zm-14.9-1.6c-.4 0-.7-.3-.8-.6-.1-.4.2-.9.6-1l.2.8-.1-.8c.4-.1.9.2 1 .6.1.4-.2.9-.6 1h-.3zm10.2-.1H80c-.4-.1-.7-.5-.6-1 .1-.4.5-.7 1-.6l-.2.8.3-.8c.4.1.7.5.6.9-.1.5-.5.7-.8.7zm-5.1-.5c-.4 0-.8-.4-.8-.8s.3-.8.8-.8h.1c.4 0 .8.4.8.8s-.4.8-.9.8zM74 123.4h-.1c-.4 0-.8-.4-.8-.8s.4-.8.8-.8.8.4.8.8c0 .5-.3.8-.7.8zm5-.2c-.4 0-.7-.3-.8-.7-.1-.4.3-.8.7-.9h.1c.4 0 .8.3.9.7 0 .4-.3.8-.7.9H79zm-10.1-.4h-.2c-.4-.1-.7-.5-.6-.9.1-.4.5-.7.9-.6.4.1.8.5.7.9-.1.4-.4.6-.8.6zm15.1-.5c-.4 0-.7-.2-.8-.6-.1-.4.1-.9.6-1h.1c.4-.1.9.1 1 .6.1.4-.1.9-.6 1H84zm-20.1-.7h-.4c-.4-.1-.6-.6-.5-1 .1-.4.6-.6 1-.5h.1c.4.1.6.6.5 1 0 .3-.3.5-.7.5zm25-.9c-.3 0-.6-.2-.7-.5-.2-.4 0-.9.4-1 .4-.2.9 0 1.1.4.2.4 0 .9-.4 1h-.1c-.1 0-.2.1-.3.1zm-29.7-1.1c-.1 0-.2 0-.3-.1l-.1-.1c-.4-.2-.5-.7-.3-1.1.2-.4.7-.5 1.1-.3.4.2.6.7.4 1.1-.2.3-.5.5-.8.5zm34.2-1.3c-.3 0-.5-.1-.7-.4-.2-.4-.1-.9.3-1.1.4-.2.9-.1 1.1.2.2.4.2.8-.2 1.1l-.1.1c-.1.1-.3.1-.4.1zm-38.6-1.4c-.1 0-.3 0-.4-.1l-.1-.1c-.4-.3-.4-.8-.2-1.1.3-.4.8-.4 1.1-.2.4.3.5.8.2 1.1-.1.3-.3.4-.6.4zm42.8-1.5c-.2 0-.5-.1-.6-.3-.3-.3-.2-.8.1-1.1.3-.3.9-.3 1.2.1.3.3.3.8-.1 1.1l-.1.1c-.2 0-.4.1-.5.1zm-46.7-1.8c-.2 0-.4-.1-.6-.2-.3-.3-.4-.8 0-1.2.3-.3.8-.4 1.1-.1l.1.1c.3.3.3.8 0 1.1-.1.3-.3.3-.6.3zm50.3-1.8c-.2 0-.4-.1-.5-.2-.3-.3-.4-.8-.1-1.1l.1-.1c.3-.3.8-.4 1.1-.1.3.3.4.8.1 1.1l-.1.1c-.1.2-.3.3-.6.3zm-53.7-2c-.2 0-.5-.1-.6-.3l-.1-.1c-.3-.3-.2-.9.1-1.1.3-.3.9-.2 1.1.1l.1.1c.3.3.2.9-.1 1.1-.1.2-.3.2-.5.2zm56.9-2c-.2 0-.3 0-.4-.1-.4-.2-.5-.7-.2-1.1l.1-.1c.2-.4.7-.5 1.1-.2.4.2.5.7.2 1.1l-.1.1c-.2.2-.5.3-.7.3zm-59.8-2.2c-.3 0-.5-.1-.6-.4v-.1c-.2-.4-.1-.9.3-1.1.4-.2.9-.1 1.1.3.2.4.1.9-.3 1.1-.2.1-.3.2-.5.2zm62.3-2.3c-.1 0-.2 0-.3-.1-.4-.2-.6-.7-.4-1.1.2-.4.7-.6 1.1-.4.4.2.6.6.4 1v.1c-.2.4-.5.5-.8.5zm-64.4-2.4c-.3 0-.6-.2-.7-.5v-.1c-.2-.4.1-.9.5-1 .4-.2.9.1 1 .5.2.4 0 .9-.4 1.1h-.4zm66.2-2.3h-.2c-.4-.1-.7-.6-.5-1v-.1c.1-.4.6-.7 1-.5.4.1.7.6.5 1v.1c-.1.2-.4.5-.8.5zM41 96.1c-.4 0-.7-.3-.8-.6v-.1c-.1-.4.2-.9.6-1 .4-.1.9.2 1 .6v.1c.1.4-.2.9-.6 1H41zm68.9-2.5h-.1c-.4-.1-.7-.5-.7-.9.1-.4.5-.8.9-.7.4.1.7.4.7.9v.1c-.1.3-.5.6-.8.6zM40.3 91c-.4 0-.8-.3-.8-.7v-.1c0-.4.3-.8.7-.9.4 0 .8.3.9.7 0 .5-.3.9-.8 1zm69.9-2.5c-.4 0-.8-.4-.8-.8v-.2c0-.4.4-.8.8-.8s.8.4.8.8v.2c0 .4-.3.8-.8.8zm-69.9-2.6s-.1 0 0 0c-.5 0-.8-.4-.8-.9v-.1c0-.4.4-.8.8-.8s.8.4.8.8v.1c-.1.6-.4.9-.8.9zm69.6-2.6c-.4 0-.7-.3-.8-.7v-.1c-.1-.4.2-.8.7-.9.4-.1.8.2.9.7v.1c.1.4-.2.8-.7.9h-.1zM41 80.9h-.2c-.4-.1-.7-.5-.6-1v-.1c.1-.4.5-.7.9-.6.4.1.7.5.6.9v.1c0 .4-.3.7-.7.7zm67.7-2.7c-.3 0-.6-.2-.7-.5v-.1c-.1-.4.1-.9.5-1 .4-.1.9.1 1 .5.1.4-.1.9-.5 1-.1.1-.2.1-.3.1zM42.5 76c-.1 0-.2 0-.3-.1-.4-.2-.6-.6-.5-1 .2-.4.6-.6 1-.5.4.2.6.6.5 1v.1c-.1.3-.4.5-.7.5zm64.4-2.5c-.3 0-.6-.2-.7-.4V73c-.2-.4 0-.9.4-1.1.4-.2.9 0 1.1.4v.1c.2.4 0 .9-.4 1.1h-.4zm-62.3-2.2c-.1 0-.3 0-.4-.1-.4-.2-.5-.7-.3-1.1V70c.2-.4.7-.5 1.1-.3.4.2.5.7.3 1.1l-.1.1c0 .3-.3.4-.6.4zm59.8-2.3c-.3 0-.5-.1-.7-.4l-.1-.1c-.2-.4-.1-.9.2-1.1.4-.2.9-.1 1.1.2l-.7.4.7-.4c.2.4.2.9-.2 1.1 0 .3-.1.3-.3.3zm-57-1.9c-.2 0-.3-.1-.5-.2-.3-.3-.4-.8-.1-1.1l.1-.1c.3-.4.8-.4 1.1-.2.4.3.4.8.2 1.1l-.1.1c-.2.2-.4.4-.7.4zm53.9-2.1c-.2 0-.4-.1-.6-.3l-.1-.1c-.3-.3-.3-.8.1-1.1.3-.3.8-.3 1.1.1l.1.1c.3.3.3.8 0 1.1-.2.1-.4.2-.6.2zm-50.4-1.8c-.2 0-.4-.1-.6-.2-.3-.3-.3-.8 0-1.1l.1-.1c.3-.3.8-.3 1.1 0 .3.3.3.8 0 1.1-.2.2-.4.3-.6.3zm46.7-1.7c-.2 0-.4-.1-.5-.2l-.1-.1c-.3-.3-.4-.8-.1-1.1.3-.3.8-.4 1.1-.1l.1.1c.3.3.4.8.1 1.1-.1.2-.4.3-.6.3zM54.8 60c-.2 0-.5-.1-.6-.3-.3-.4-.2-.9.2-1.1.4-.3.9-.2 1.1.2.3.4.2.8-.2 1.1l-.1.1c-.1-.1-.3 0-.4 0zm38.7-1.5c-.1 0-.3 0-.4-.1l-.1-.1c-.4-.2-.5-.7-.3-1.1.2-.4.7-.5 1.1-.3l.1.1c.4.2.5.7.3 1.1-.2.2-.5.4-.7.4zm-34.4-1.2c-.3 0-.6-.2-.7-.4-.2-.4 0-.9.4-1.1h.1c.4-.2.9-.1 1.1.3.2.4.1.9-.3 1.1l-.1.1h-.5zm29.8-1.2c-.1 0-.2 0-.3-.1h-.1c-.4-.2-.6-.6-.4-1.1.2-.4.6-.6 1.1-.4h.1c.4.2.6.6.4 1-.2.5-.5.6-.8.6zm-25.1-.8c-.3 0-.6-.2-.8-.5-.1-.4.1-.9.5-1h.1c.4-.2.9.1 1 .5.1.4-.1.9-.5 1h-.3zm20.3-.8h-.3c-.4-.1-.7-.5-.6-1 .1-.4.5-.7 1-.6h.1c.4.1.7.5.6 1-.2.4-.5.6-.8.6zm-15.3-.6c-.4 0-.8-.3-.8-.6-.1-.4.2-.8.6-.9h.1c.4-.1.9.2 1 .6.1.4-.2.8-.6.9h-.3zm10.2-.3c-.5-.1-.9-.4-.9-.9 0-.4.4-.8.8-.7h.1c.4.1.8.4.7.9.1.4-.3.7-.7.7zm-5.1-.2c-.4 0-.8-.3-.8-.8 0-.4.3-.8.7-.8h.1c.4 0 .8.3.8.8s-.3.8-.8.8zm4.8 82.3c-.4 0-.8-.3-.8-.7 0-.4.3-.8.7-.9.4 0 .9.3.9.7s-.2.8-.7.9h-.1c.1 0 0 0 0 0zm-7 0h-.2c-.4 0-.8-.4-.7-.9 0-.4.4-.8.9-.7.4 0 .8.4.8.9-.1.4-.4.7-.8.7zm14-1c-.4 0-.7-.2-.8-.6-.1-.4.2-.9.6-1h.1c.4-.1.9.2 1 .6.1.4-.2.9-.6 1h-.3zm-21 0h-.3c-.4-.1-.7-.5-.6-1 .1-.4.5-.7 1-.6.4.1.8.5.7 1-.1.3-.4.6-.8.6zm27.8-2.1c-.3 0-.6-.2-.7-.5-.2-.4 0-.9.5-1 .4-.2.9 0 1.1.4.2.4 0 .9-.4 1h-.1c-.2.1-.3.1-.4.1zm-34.6 0c-.1 0-.2 0-.3-.1h-.1c-.4-.2-.6-.6-.4-1 .2-.4.6-.6 1-.4.4.2.7.6.5 1.1-.1.2-.4.4-.7.4zm41-3.1c-.3 0-.5-.1-.7-.4-.2-.4-.1-.9.3-1.1.4-.2.9-.1 1.1.3.2.4.1.8-.3 1.1h-.1c-.1.1-.2.1-.3.1zm-47.4 0c-.1 0-.3 0-.4-.1H51c-.4-.2-.5-.7-.3-1.1.2-.4.7-.5 1.1-.3l.1.1c.4.2.5.7.3 1.1-.1.2-.4.3-.7.3zm53.2-4c-.2 0-.5-.1-.6-.3-.3-.3-.2-.8.1-1.1.3-.3.9-.3 1.2.1.3.3.3.8-.1 1.1l-.1.1c-.1.1-.3.1-.5.1zm-59 0c-.2 0-.4-.1-.5-.2l-.1-.1c-.3-.3-.4-.8-.1-1.1.3-.3.8-.4 1.1-.1l.1.1c.3.3.4.8.1 1.1-.1.2-.4.3-.6.3zm64.2-4.8c-.2 0-.4-.1-.5-.2-.3-.3-.3-.8 0-1.1.3-.3.8-.4 1.2-.1.3.3.4.8.1 1.1l-.1.1c-.2.1-.5.2-.7.2zm-69.4 0c-.2 0-.4-.1-.6-.3l.6-.5-.7.5c-.3-.3-.3-.8 0-1.1.3-.3.8-.3 1.1 0l.1.1c.3.3.3.8 0 1.1-.1.1-.3.2-.5.2zm73.9-5.5c-.2 0-.3 0-.4-.1-.4-.2-.5-.7-.2-1.1l.1-.1c.3-.4.8-.5 1.1-.2.4.3.5.8.2 1.1v.1c-.3.2-.6.3-.8.3zm-78.3 0c-.3 0-.5-.1-.7-.4l.7-.4-.7.4c-.3-.4-.2-.9.2-1.1.4-.3.9-.2 1.1.2l.1.1c.2.4.2.9-.2 1.1-.2 0-.4.1-.5.1zm81.8-6.1c-.1 0-.2 0-.3-.1-.4-.2-.6-.7-.4-1.1v-.1c.2-.4.7-.6 1.1-.4.4.2.6.7.4 1.1v.1c-.2.3-.5.5-.8.5zm-85.4-.1c-.3 0-.5-.1-.7-.4v-.1c-.2-.4 0-.9.4-1.1.4-.2.9 0 1.1.4.2.4 0 .9-.4 1.1-.2.1-.3.1-.4.1zm88-6.5h-.2c-.4-.1-.7-.6-.5-1 .1-.4.6-.7 1-.6.4.1.7.5.5 1v.1c-.1.2-.4.5-.8.5zm-90.6 0c-.3 0-.7-.2-.8-.6l.8-.2-.8.2c-.1-.4.1-.9.5-1 .4-.1.9.1 1 .5v.1c.1.4-.1.9-.5 1 0-.1-.1 0-.2 0zm92.2-6.9h-.1c-.4-.1-.7-.5-.7-.9v-.1c.1-.4.5-.7.9-.7.4.1.7.5.7.9l-.8-.1.8.2c-.1.4-.4.7-.8.7zm-93.8 0c-.4 0-.7-.3-.8-.7l.8-.1h-.8c-.1-.4.2-.8.7-.9.4-.1.8.2.9.7v.1c.1.4-.2.8-.7.9h-.1zm94.4-7.1c-.4 0-.8-.4-.8-.8v-.2c0-.4.4-.8.8-.8s.8.4.8.8v.4c0 .2-.4.6-.8.6zm-94.9 0c-.4 0-.8-.4-.8-.8h.8l-.8-.1h1.6v.1c0 .4-.4.8-.8.8zm.5-7.1h-.1c-.4-.1-.7-.5-.7-.9v-.1c.1-.4.5-.8.9-.7.4.1.7.4.7.9v.1c-.1.4-.4.7-.8.7zm93.8-.2c-.4 0-.7-.3-.8-.7v-.1c-.1-.4.2-.8.7-.9.4-.1.8.2.9.7l-.8.1h.8c.1.4-.2.8-.7.9h-.1zm-92.3-6.7h-.2c-.4-.1-.7-.5-.5-1v-.1c.1-.4.6-.7 1-.5.4.1.7.6.5 1-.1.3-.4.6-.8.6zm90.7-.2c-.3 0-.7-.2-.8-.6v-.1c-.1-.4.1-.9.5-1s.9.1 1 .5l-.8.2.8-.2c.1.4-.1.9-.5 1 0 .2-.1.2-.2.2zm-88.1-6.4c-.1 0-.2 0-.3-.1-.4-.2-.6-.7-.4-1.1v-.1c.2-.4.7-.6 1.1-.4.4.2.6.7.4 1.1v.1c-.2.3-.5.5-.8.5zm85.5-.2c-.3 0-.6-.2-.7-.5-.2-.4 0-.9.4-1.1.4-.2.9-.1 1 .3v.1c.2.4 0 .9-.4 1.1 0 .1-.2.1-.3.1zm-81.9-6c-.1 0-.3 0-.4-.1-.4-.2-.5-.7-.2-1.1l.1-.1c.2-.4.7-.5 1.1-.2.4.2.5.7.2 1.1-.3.3-.6.4-.8.4zm78.4-.1c-.3 0-.5-.1-.7-.4-.2-.4-.2-.9.2-1.1.4-.2.8-.2 1.1.2l.1.1c.2.4.2.9-.2 1.1-.2.1-.4.1-.5.1zm-74-5.4c-.2 0-.4-.1-.5-.2-.3-.3-.4-.8-.1-1.1l.1-.1c.3-.3.8-.3 1.1 0 .3.3.3.8 0 1.1-.1.2-.4.3-.6.3zm69.5-.1c-.2 0-.4-.1-.5-.2l-.1-.1c-.3-.3-.3-.8 0-1.1.3-.3.8-.3 1.1 0 .3.3.3.8 0 1.2-.1.1-.3.2-.5.2zm-64.3-4.8c-.2 0-.5-.1-.6-.3-.3-.3-.3-.8.1-1.1l.1-.1c.3-.3.8-.2 1.1.1.3.3.2.8-.1 1.1-.2.3-.4.3-.6.3zm59.1 0c-.2 0-.4-.1-.5-.2-.3-.3-.4-.8-.2-1.2.3-.3.7-.4 1.1-.2l.1.1c.3.3.4.8.1 1.1-.1.3-.3.4-.6.4zm-53.3-3.9c-.3 0-.5-.1-.7-.4-.2-.4-.1-.9.3-1.1l.4.7-.3-.7c.4-.2.9-.1 1.1.3.2.4.1.9-.3 1.1l-.1.1c-.1-.1-.3 0-.4 0zm47.5-.1c-.1 0-.3 0-.4-.1l-.1-.1c-.4-.2-.5-.7-.3-1.1.2-.4.7-.5 1.1-.3h.1c.4.2.5.7.3 1.1-.2.3-.4.5-.7.5zm-41.1-3.1c-.3 0-.6-.2-.8-.5-.2-.4 0-.9.4-1h.1c.4-.2.9 0 1 .5.2.4 0 .9-.5 1h-.2zm34.7 0c-.1 0-.2 0-.3-.1h-.1c-.4-.2-.6-.6-.5-1 .2-.4.6-.6 1-.5h.1c.4.2.6.6.5 1-.1.4-.4.6-.7.6zm-28-2c-.4 0-.7-.3-.8-.6-.1-.4.2-.9.6-1l.2.8-.1-.8c.4-.1.9.2 1 .6.1.4-.2.9-.6 1h-.3zm21.2-.1h-.2c-.4-.1-.8-.5-.7-1 .1-.4.5-.7.9-.6h.1c.4.1.7.5.6 1 0 .4-.3.6-.7.6zm-14.2-1c-.4 0-.8-.3-.8-.7 0-.4.3-.8.7-.9l.1.8v-.8c.4 0 .8.3.9.7 0 .4-.3.8-.7.9h-.2c.1 0 0 0 0 0zm7.2 0h-.2c-.4 0-.8-.4-.7-.9 0-.4.4-.8.9-.7l-.1.8.1-.8c.4 0 .8.4.8.8 0 .5-.4.8-.8.8z"/><circle class="st4" cx="30.7" cy="72.4" r="1.1"/><path class="st5" d="M30.7 74.3c-1 0-1.9-.9-1.9-1.9s.9-1.9 1.9-1.9 1.9.9 1.9 1.9-.8 1.9-1.9 1.9zm0-2.2c-.2 0-.3.1-.3.3s.1.3.3.3.3-.1.3-.3-.1-.3-.3-.3z"/><circle class="st0" cx="2.9" cy="41.3" r="1.1"/><path class="st1" d="M2.9 43.2c-1 0-1.9-.9-1.9-1.9s.9-1.9 1.9-1.9 1.9.9 1.9 1.9-.9 1.9-1.9 1.9zm0-2.2c-.2 0-.3.1-.3.3s.1.3.3.3.3-.1.3-.3-.1-.3-.3-.3z"/><circle class="st6" cx="120.6" cy="72.1" r="1.1"/><path class="st7" d="M120.6 74c-1 0-1.9-.9-1.9-1.9s.9-1.9 1.9-1.9 1.9.9 1.9 1.9-.9 1.9-1.9 1.9zm0-2.2c-.2 0-.3.1-.3.3s.1.3.3.3.3-.1.3-.3-.2-.3-.3-.3z"/><circle class="st6" cx="69.8" cy="52.8" r="1.1"/><path class="st7" d="M69.8 54.7c-1 0-1.9-.9-1.9-1.9s.9-1.9 1.9-1.9 1.9.9 1.9 1.9-.8 1.9-1.9 1.9zm0-2.2c-.2 0-.3.1-.3.3s.1.3.3.3.3-.1.3-.3-.1-.3-.3-.3z"/><circle class="st4" cx="75.2" cy="77.4" r="1.1"/><path class="st5" d="M75.2 79.3c-1 0-1.9-.9-1.9-1.9s.9-1.9 1.9-1.9 1.9.9 1.9 1.9-.8 1.9-1.9 1.9zm0-2.2c-.2 0-.3.1-.3.3s.1.3.3.3.3-.1.3-.3-.1-.3-.3-.3z"/><circle class="st4" cx="101.1" cy="127.4" r="1.1"/><path class="st5" d="M101.1 129.3c-1 0-1.9-.9-1.9-1.9s.9-1.9 1.9-1.9 1.9.9 1.9 1.9-.8 1.9-1.9 1.9zm0-2.2c-.2 0-.3.1-.3.3s.1.3.3.3.3-.1.3-.3-.1-.3-.3-.3z"/><circle class="st0" cx="130.5" cy="21" r="1.1"/><path class="st1" d="M130.5 22.9c-1 0-1.9-.9-1.9-1.9s.9-1.9 1.9-1.9 1.9.9 1.9 1.9-.9 1.9-1.9 1.9zm0-2.2c-.2 0-.3.1-.3.3s.1.3.3.3.3-.1.3-.3-.2-.3-.3-.3z"/><circle class="st6" cx="155" cy="72.1" r="1.1"/><path class="st7" d="M155 74c-1 0-1.9-.9-1.9-1.9s.9-1.9 1.9-1.9 1.9.9 1.9 1.9-.8 1.9-1.9 1.9zm0-2.2c-.2 0-.3.1-.3.3s.1.3.3.3.3-.1.3-.3-.1-.3-.3-.3z"/><circle class="st4" cx="13" cy="147.6" r="1.1"/><path class="st5" d="M13 149.5c-1 0-1.9-.9-1.9-1.9s.9-1.9 1.9-1.9 1.9.9 1.9 1.9-.9 1.9-1.9 1.9zm0-2.2c-.2 0-.3.1-.3.3s.1.3.3.3.3-.1.3-.3-.1-.3-.3-.3z"/><path class="st8" d="M75.2 123.4c-.4 0-.8-.4-.8-.8s.4-.8.8-.8c18.9 0 34.2-15.4 34.2-34.3 0-.4.4-.8.8-.8s.8.4.8.8c0 19.8-16 35.9-35.8 35.9zm-35-67c-.2 0-.4-.1-.5-.2-.3-.3-.3-.8-.1-1.1 9.1-10 22.1-15.7 35.6-15.7 5 0 10 .8 14.8 2.3.4.1.7.6.5 1-.1.4-.6.7-1 .5-4.6-1.5-9.4-2.2-14.3-2.2-13.1 0-25.6 5.5-34.4 15.2-.2.1-.4.2-.6.2zm35 42.2c-.4 0-.8-.4-.8-.8s.4-.8.8-.8c5.2 0 9.4-4.2 9.4-9.4 0-.4.4-.8.8-.8s.8.4.8.8c0 6.1-4.9 11-11 11z"/><path class="st7" d="M69.8 48.7c-.4 0-.8-.4-.8-.8V22.1c0-.4.4-.8.8-.8s.8.4.8.8v25.8c0 .4-.3.8-.8.8z"/><path class="st2" d="M120.8 47.7h19.3v5.7h-19.3z"/><path class="st7" d="M140.1 54.5h-19.3c-.6 0-1-.4-1-1v-5.7c0-.6.4-1 1-1h19.3c.6 0 1 .4 1 1v5.7c0 .5-.4 1-1 1zm-18.3-2h17.3v-3.7h-17.3v3.7z"/><path class="st2" d="M70.1 16.4h22.6v5.7H70.1z"/><path class="st7" d="M92.7 23.1H70.1c-.6 0-1-.4-1-1v-5.7c0-.6.4-1 1-1h22.6c.6 0 1 .4 1 1v5.7c0 .6-.5 1-1 1zm-21.6-2h20.6v-3.7H71.1v3.7z"/><path class="st2" d="M81.8 102.7h19.3v5.7H81.8z"/><path class="st7" d="M101.1 109.5H81.8c-.6 0-1-.4-1-1v-5.7c0-.6.4-1 1-1h19.3c.6 0 1 .4 1 1v5.7c0 .5-.5 1-1 1zm-18.3-2h17.3v-3.7H82.8v3.7z"/><path class="st7" d="M120.6 68.2c-.4 0-.8-.4-.8-.8V52.7c0-.4.4-.8.8-.8s.8.4.8.8v14.7c0 .5-.4.8-.8.8zm-19.4 54.9c-.4 0-.8-.4-.8-.8v-14.7c0-.4.4-.8.8-.8s.8.4.8.8v14.7c0 .5-.4.8-.8.8z"/><circle class="st6" cx="41.9" cy="98.6" r="1.1"/><path class="st7" d="M41.9 100.5c-1 0-1.9-.9-1.9-1.9s.9-1.9 1.9-1.9 1.9.9 1.9 1.9-.9 1.9-1.9 1.9zm0-2.2c-.2 0-.3.1-.3.3s.1.3.3.3.3-.1.3-.3-.1-.3-.3-.3z"/></svg>