<svg id="svg" xmlns="http://www.w3.org/2000/svg" viewBox="0 0 300 300"><defs><style>.cls-1,.cls-15,.cls-16,.cls-17,.cls-3,.cls-4,.cls-8{fill:#d7e9ff}.cls-1{stroke:#d7e9ff}.cls-1,.cls-10,.cls-11,.cls-12,.cls-13,.cls-14,.cls-15,.cls-16,.cls-17,.cls-18,.cls-19,.cls-2,.cls-20,.cls-21,.cls-4,.cls-5,.cls-6,.cls-7,.cls-8,.cls-9{stroke-linejoin:round}.cls-1,.cls-18,.cls-19,.cls-2,.cls-20,.cls-21,.cls-4,.cls-9{stroke-width:1.6px}.cls-1,.cls-20{fill-rule:evenodd}.cls-2{fill:#8fbeff}.cls-11,.cls-12,.cls-18,.cls-19,.cls-2,.cls-4,.cls-8,.cls-9{stroke:#8fbeff}.cls-11,.cls-13,.cls-14,.cls-18,.cls-20,.cls-21,.cls-5,.cls-7{fill:#fff}.cls-20,.cls-21,.cls-5{stroke:#fff}.cls-10,.cls-11,.cls-12,.cls-13,.cls-14,.cls-15,.cls-16,.cls-17,.cls-5,.cls-6,.cls-7,.cls-8{stroke-width:2px}.cls-10,.cls-12,.cls-19,.cls-6,.cls-9{fill:none}.cls-10,.cls-13,.cls-14,.cls-15,.cls-6{stroke:#0069ff}.cls-12,.cls-14,.cls-6,.cls-9{stroke-linecap:round}.cls-17,.cls-7{stroke:#dfeffd}.cls-16{stroke:#4894ff}</style></defs><path class="cls-1" d="M229.48 114.48a5.31 5.31 0 0 1-5.31-5.31 5.31 5.31 0 0 1-5.31 5.31 5.31 5.31 0 0 1 5.31 5.31 5.31 5.31 0 0 1 5.31-5.31zm-112-41.13a5.31 5.31 0 0 1-5.31-5.35 5.31 5.31 0 0 1-5.31 5.31 5.31 5.31 0 0 1 5.31 5.31 5.31 5.31 0 0 1 5.31-5.27z"/><circle class="cls-2" cx="99.94" cy="86.09" r="1.11"/><circle class="cls-2" cx="204.45" cy="92.43" r="1.11"/><path class="cls-3" d="M74.91 97.55h108.12v65.95H74.91z"/><path class="cls-4" d="M74.91 114.48h81.24v32.1H74.91z"/><path class="cls-5" d="M48.02 146.57l13.45 16.93h13.44V97.55H61.47l-13.45 16.92v32.1z"/><path class="cls-6" d="M74.91 132V97.55H61.47l-13.45 16.92v32.1l13.45 16.93h13.44v-13.16"/><path class="cls-4" d="M183.03 97.55h-13.44l-13.44 16.92v32.1l13.44 16.93h13.44"/><path class="cls-7" transform="rotate(45 209.995 165.893)" d="M199.82 122.97h20.34v85.83h-20.34z"/><path class="cls-8" transform="rotate(45 213.589 169.481)" d="M208.5 126.57h10.17v85.83H208.5z"/><path class="cls-9" d="M178.52 182.97l1.98 1.98m4.09-8.05l3.16 3.16m2.91-9.22l1.98 1.97m4.09-8.04l3.16 3.15m2.91-9.22l1.98 1.98m4.09-8.05l3.16 3.16m2.91-9.23l1.98 1.98m4.09-8.05l3.15 3.16m2.92-9.23l1.97 1.98"/><path class="cls-10" transform="rotate(45 209.995 165.893)" d="M199.82 122.97h20.34v85.83h-20.34z"/><path class="cls-11" transform="rotate(-45 104.969 169.33)" d="M91.74 158.91h26.46v20.86H91.74z"/><path class="cls-12" d="M88.24 171.32l14.75 14.75m-11.01-18.49l14.75 14.75m-11-18.49l14.74 14.74m-11-18.49l14.75 14.75m-11.01-18.49l14.75 14.75m-11.01-18.49l14.75 14.75"/><path class="cls-13" d="M85 151.77h16.84a4.81 4.81 0 0 1 4.81 4.81v7.13H80.14v-7.13a4.81 4.81 0 0 1 4.86-4.81z" transform="rotate(-45 93.379 157.741)"/><path class="cls-13" d="M80 138.31a4.34 4.34 0 1 0-6.09 6.09l13.69 10.67 3.11-3.07z"/><path class="cls-14" transform="rotate(152.9 114.846 133.09)" d="M112.8 123.44h3.84v20.22h-3.84z"/><path class="cls-13" d="M111.74 123.7l-.32-2.76-2.6-4.96-5.17 2.7 2.6 4.97 2.09 1.83 3.4-1.78z"/><path class="cls-15" d="M124.54 150.83a7.5 7.5 0 0 1 7.5 7.5v26h-7.5v-33.5z" transform="rotate(152.38 128.288 167.586)"/><path class="cls-13" d="M138.69 147.35v33.5h-7.5v-26a7.5 7.5 0 0 1 7.5-7.5z" transform="rotate(152.38 134.933 164.108)"/><path class="cls-15" d="M118.25 151.15a2.47 2.47 0 0 1-1 3.33l13.29-7a2.47 2.47 0 0 1-2.29-4.38l-13.29 7a2.47 2.47 0 0 1 3.29 1.05z"/><path class="cls-15" transform="rotate(152.38 120.483 144.57)" d="M112.99 142.24h15v4.65h-15z"/><path class="cls-13" transform="rotate(152.38 123.804 142.837)" d="M120.06 140.51h7.5v4.65h-7.5z"/><path class="cls-15" transform="rotate(4.89 193.668 145.291)" d="M189.55 120.57h8.2v49.53h-8.2z"/><path class="cls-15" d="M212.55 128.86a9 9 0 0 0-6.13-3.17l-22-1.88-1.54 18 22 1.88a9 9 0 0 0 7.67-14.83z"/><path class="cls-13" d="M189.43 139.68a9 9 0 1 1 1.09-12.7 9 9 0 0 1-1.09 12.7z"/><path class="cls-16" d="M164.41 141.25h-6.84a18.62 18.62 0 1 0 0 37.24h6.84a18.62 18.62 0 1 0 0-37.24zm-6.31 18.62a6.3 6.3 0 0 1 2.89-5.3 6.3 6.3 0 0 1 0 10.6 6.3 6.3 0 0 1-2.89-5.3z"/><path class="cls-13" d="M164.41 141.25A18.62 18.62 0 1 0 183 159.87a18.62 18.62 0 0 0-18.59-18.62zm0 24.93a6.31 6.31 0 1 1 6.31-6.31 6.31 6.31 0 0 1-6.31 6.31z"/><path class="cls-4" d="M135.86 158.28h109.12v5.22H135.86z"/><path class="cls-5" d="M74.91 163.5h65.95v48.47H74.91z"/><path class="cls-17" d="M140.86 163.5h109.12v48.47H140.86z"/><path class="cls-18" d="M79.91 158.28h55.95v5.22H79.91zm70.34 42.04h27.37v5.63h-27.37z"/><path class="cls-19" d="M74.91 163.5v48.46l6.01-6.01v-36.44l-6.01-6.01zm59.93 6.01H80.92l-6.01-6.01h65.94l-6.01 6.01z"/><path class="cls-19" d="M80.92 205.95h53.92l6.01 6.01H74.91l6.01-6.01z"/><path class="cls-10" d="M74.91 163.5h65.95v48.47H74.91z"/><path class="cls-6" d="M210.63 163.5h39.35v48.46H140.85V163.5h39.35"/><path class="cls-20" d="M146.17 128.55a5.31 5.31 0 0 1-5.31-5.31 5.31 5.31 0 0 1-5.31 5.31 5.31 5.31 0 0 1 5.31 5.31 5.31 5.31 0 0 1 5.31-5.31z"/><circle class="cls-21" cx="98.62" cy="135.41" r="1.11"/><path class="cls-6" d="M74.91 97.55h108.12v20.22"/><path class="cls-18" d="M185.2 163.5h20.43v14.79H185.2z"/><path class="cls-18" d="M191.44 163.5h7.96v14.79h-7.96z"/><path class="cls-18" d="M191.44 175.12h7.96v7.96h-7.96z"/><path class="cls-6" d="M61.17 211.96h204.5m-233.34 0h19.84"/></svg>