<svg id="svg" xmlns="http://www.w3.org/2000/svg" viewBox="0 0 209.3 151.8"><style>.st0{fill:#4894ff;stroke-miterlimit:10}.st0,.st1,.st2,.st3{stroke:#0069ff;stroke-width:2;stroke-linecap:round}.st1{stroke-linejoin:round;fill:#d7e9ff}.st2,.st3{fill:none}.st2{stroke-miterlimit:10}.st3{stroke-linejoin:round}.st4{fill:#d7e9ff}.st5{fill:#fff;stroke:#0069ff;stroke-width:2;stroke-linecap:round;stroke-linejoin:round}.st6{fill:#fff;stroke:#8fbeff}.st6,.st7{stroke-width:1.6;stroke-miterlimit:10}.st7,.st8{fill:none;stroke:#d7e9ff;stroke-linecap:round}.st10,.st11,.st8,.st9{stroke-width:1.6;stroke-linejoin:round}.st9{stroke-linecap:round;fill:none;stroke:#1f8ced}.st10{fill:#fff;stroke:#4894ff}.st11{fill:none;stroke:#8fbeff;stroke-linecap:round}.st12{fill:#d7e9ff;stroke-linejoin:round}.st12,.st13{stroke:#4894ff;stroke-width:1.6}.st13,.st14,.st15,.st16,.st17{stroke-linejoin:round}.st13,.st14{fill:none}.st14,.st15{stroke:#0069ff}.st14,.st15,.st16,.st17{stroke-width:2}.st15{fill:#4894ff}.st15,.st16,.st17{stroke-linecap:round}.st16{fill:none;stroke:#fff}.st17{fill:#0069ff;stroke:#0069ff}</style><path class="st0" d="M54.7 130.4h87.9c9.4.1 18.7-2.6 26.6-7.7H45.8c2.4 3.1 5.5 5.7 8.9 7.7z"/><path class="st1" d="M35.3 103.5v9.9h5c1.4 3.3 3.3 6.4 5.5 9.2h123.5c12.5-7.9 19.4-19.1 26.7-19.1H35.3z"/><path class="st2" d="M1 130.4h170.3"/><path class="st3" d="M93.2 91v10.8"/><circle class="st4" cx="180" cy="24" r="20.2"/><path class="st5" d="M79.4 28.3L93.2 2v90.5H45.7l8.5-16.2"/><circle class="st6" cx="76.4" cy="122.7" r="3.5"/><circle class="st6" cx="91.8" cy="122.7" r="3.5"/><circle class="st6" cx="60.9" cy="122.7" r="3.5"/><path class="st7" d="M142.6 138.5H58.5m-25.4 6.7h46.6M68.6 152h27.6"/><path class="st8" d="M25.3 73H75m-39.5-4.1h34.2M37.9 36.4h29.5m-9.3-4.2h24.8"/><path class="st2" d="M177.2 130.4h31.1"/><path class="st9" d="M155.7 38.8s4.2-4.3 9.9-.5c3.1-5.9 8.6-3.7 8.6-3.7m-35.7-5.4s4.5-2.8 8.4 1.9c4.1-4.5 8.1-1.3 8.1-1.3m20.8-8.6c1.3-2.5 4.2-3.8 7-3 .2-2.7 2.5-4.8 5.2-4.9"/><path class="st10" d="M111.7 89.6h34.1v10.5h-34.1z"/><path class="st11" d="M116.6 94.8h5.8m4 0h14.5"/><path class="st10" d="M111.7 79.1h34.1v10.5h-34.1z"/><path class="st11" d="M122.4 84.3h-5.8m24.3 0h-14.5"/><path class="st10" d="M111.7 68.6h34.1v10.5h-34.1z"/><path class="st11" d="M116.6 73.9h5.8m4 0h14.5"/><path class="st10" d="M111.7 58.1h34.1v10.5h-34.1z"/><path class="st11" d="M122.4 63.4h-5.8m24.3 0h-14.5"/><path class="st10" d="M145.8 89.6h34.1v10.5h-34.1z"/><path class="st11" d="M156.6 94.8h-5.9m24.3 0h-14.5"/><path class="st10" d="M145.8 79.1h34.1v10.5h-34.1z"/><path class="st11" d="M156.6 84.3h-5.9m24.3 0h-14.5"/><path class="st12" d="M102.2 99.9V62.2l9.5-4.1v41.3"/><path class="st13" d="M102.2 71.4l9.5-2.8M102.2 81l9.5-1.9m-9.5 11.8l9.5-1.3"/><path class="st14" d="M145.8 79.1v-21h-34.1l-9.5 4.1V100h77.7V79.1z"/><path class="st7" d="M148 138.5h12.1M101.4 152h6.8"/><path class="st15" d="M84.6 100.1h115.6v3.5H84.6z"/><path class="st8" d="M20.8 73h-5.5"/><path class="st3" d="M59.7 65.9l15.8-30.2"/><path class="st1" d="M40.3 113.4h16.1"/><path class="st16" d="M110.5 113.4h56.1"/><path class="st17" d="M43.3 119.2c-1.5-2.6 1.8-5.7 5.2-5.7h-8.2l3 5.7z"/></svg>