<svg id="svg" xmlns="http://www.w3.org/2000/svg" viewBox="0 0 300 300"><defs><style>.cls-1,.cls-11,.cls-6,.cls-8{fill:#d7e9ff}.cls-1{stroke:#d7e9ff}.cls-1,.cls-10,.cls-13,.cls-14,.cls-15,.cls-16,.cls-17,.cls-18,.cls-2,.cls-3,.cls-4,.cls-6,.cls-7,.cls-9{stroke-linejoin:round}.cls-1,.cls-13,.cls-14,.cls-2,.cls-3,.cls-6{stroke-width:1.6px}.cls-1,.cls-5,.cls-7,.cls-8,.cls-9{fill-rule:evenodd}.cls-12,.cls-2{fill:#8fbeff}.cls-10,.cls-14,.cls-2,.cls-4,.cls-6,.cls-7{stroke:#8fbeff}.cls-3{fill:#4894ff}.cls-13,.cls-3{stroke:#4894ff}.cls-13,.cls-14,.cls-15,.cls-16,.cls-18,.cls-4,.cls-7,.cls-9{fill:none}.cls-15,.cls-16,.cls-18,.cls-4,.cls-6,.cls-7,.cls-9{stroke-linecap:round}.cls-4{stroke-width:6px}.cls-10,.cls-17,.cls-5{fill:#fff}.cls-10,.cls-15,.cls-17,.cls-18,.cls-7,.cls-9{stroke-width:2px}.cls-15,.cls-9{stroke:#0069ff}.cls-16{stroke:#fff;stroke-width:1.6px}.cls-17{stroke:#a5d1f7}.cls-18{stroke:#1f8ced}</style></defs><path class="cls-1" d="M148.23 190.5a5.31 5.31 0 0 1-5.31-5.31 5.31 5.31 0 0 1-5.31 5.31 5.31 5.31 0 0 1 5.31 5.31 5.31 5.31 0 0 1 5.31-5.31zm52.6-24.03a5.31 5.31 0 0 1-5.31-5.31 5.31 5.31 0 0 1-5.31 5.31 5.31 5.31 0 0 1 5.31 5.31 5.31 5.31 0 0 1 5.31-5.31z"/><circle class="cls-2" cx="187.2" cy="213.07" r="1.11"/><circle class="cls-2" cx="199.83" cy="104.53" r="1.11"/><circle class="cls-3" cx="209.32" cy="188.1" r="1.11"/><circle class="cls-4" cx="166.27" cy="88.39" r="24.99" transform="rotate(-55.6 166.256 88.384)"/><path class="cls-5" d="M121.26 188.1l40.17-31.65 14.99-48.9-31.69-21.7-40.17 31.66-14.99 48.89 31.69 21.7z"/><path class="cls-6" transform="rotate(-55.6 132.992 136.97)" d="M84.18 117.77h97.63v38.41H84.18z"/><path class="cls-7" d="M161.43 156.45l14.99-48.9-31.69-21.7-40.17 31.66-14.99 48.89 31.69 21.7 32.72-25.78"/><path class="cls-8" d="M193 113a21.74 21.74 0 0 1-7-8.62 21.14 21.14 0 0 0-38.37 0 21.74 21.74 0 0 1-7 8.61 16.4 16.4 0 0 0-6.82 14.78 16 16 0 0 0 5 10.32 9.14 9.14 0 0 1 3 6.62 8.84 8.84 0 0 0 8.83 8.84h32.3a8.84 8.84 0 0 0 8.84-8.83 9.14 9.14 0 0 1 3-6.61 16 16 0 0 0 5-10.32A16.4 16.4 0 0 0 193 113z"/><path class="cls-9" d="M181.81 98.41a21.14 21.14 0 0 0-34.21 6 21.74 21.74 0 0 1-7 8.61 16.4 16.4 0 0 0-6.82 14.78 16 16 0 0 0 5 10.32 9.14 9.14 0 0 1 3 6.62 8.84 8.84 0 0 0 8.83 8.84h32.3a8.84 8.84 0 0 0 8.84-8.83 9.14 9.14 0 0 1 3-6.61 16 16 0 0 0 5-10.32A16.4 16.4 0 0 0 193 113a20.5 20.5 0 0 1-3.61-3.32"/><circle class="cls-10" cx="166.78" cy="113.3" r="6.55"/><path class="cls-9" d="M166.78 106.75a6.55 6.55 0 0 1 0 13.1"/><path class="cls-5" d="M157.75 153.56v60.61a6.43 6.43 0 0 1 6.43 6.43h11.57v-67h-18z"/><path class="cls-11" d="M157.75 153.56h18v7.6h-18z"/><path class="cls-11" d="M164.16 153.56h5.14v67.04h-5.14z"/><path class="cls-12" d="M164.18 153.56h5.14v7.6h-5.14z"/><path class="cls-13" d="M164.16 153.56h5.14v67.04h-5.14z"/><path class="cls-14" d="M164.18 161.16l-.04 59.44"/><path class="cls-9" d="M175.74 180.6v-27h-18v60.61a6.43 6.43 0 0 1 6.43 6.43h11.57v-12.13"/><path class="cls-15" d="M175.73 203.51l.01-17.91"/><path class="cls-4" d="M166.6 113.38a25 25 0 0 0 13.79-45.61"/><path class="cls-16" d="M166.6 113.38a25 25 0 0 0 13.79-45.61m-3.97-2.22a24.82 24.82 0 0 0-7-2"/><path class="cls-17" d="M152.27 130.97h29v8.5h-29z"/><path class="cls-18" d="M181.27 130.97v8.5"/></svg>