<svg id="Layer_1" xmlns="http://www.w3.org/2000/svg" viewBox="0 0 265.1 151.8"><style>.st0,.st1{stroke-linecap:round}.st0{stroke-miterlimit:10;fill:none;stroke:#d7e9ff;stroke-width:1.6}.st1{fill:#fff;stroke:#0069ff;stroke-width:2;stroke-linejoin:round}.st2{fill:#d7e9ff}.st3{fill:none;stroke:#4894ff;stroke-width:1.6;stroke-linecap:round;stroke-linejoin:round}.st4{fill:#4894ff}.st5{fill:#8fbeff}.st6{fill:#0069ff}.st7{fill:none;stroke:#fff;stroke-width:2;stroke-linecap:round}.st7,.st8,.st9{stroke-linejoin:round}.st8{stroke-width:1.6;fill:#fff;stroke:#fff}.st9{fill:#8fbeff;stroke:#8fbeff}.st10,.st11,.st9{stroke-width:1.6}.st10{stroke-linejoin:round;fill:#4894ff;stroke:#4894ff}.st11{fill:none;stroke:#fff;stroke-linecap:round;stroke-miterlimit:10}</style><title>_snapshotsDroplet</title><path class="st0" d="M215.8 43.2h5.9m-48.9 64h68.6M32.9 59.1h5.7m183.1-2.7h9.1M26.2 96.8h79.3m-4-96h13.1m36.9 141.6h81.9M23.8 131.6H100m-56.6-18.5h12.1m-54.7 0H34m191.3-25.3h17.2"/><path class="st1" d="M165.1 29.7l19 90L92.7 139m-5.9 1.3l-21.6 4.6-25-118.5L159.1 1.3l5 23.7"/><path transform="rotate(-11.918 109.834 62.06)" class="st2" d="M54.1 17.9h111.4v88.3H54.1z"/><path class="st3" d="M52.5 60.1l-6.3-29.8L72 24.9M60.5 98l3.9 18.7 109-23-18.2-86.4-22.9 4.8"/><path class="st4" d="M137.8 66.7c2.9 14.2-6.2 28.1-20.4 31-14.2 2.9-28.1-6.2-31-20.4-3.5-16.9 17.9-42.9 17.9-42.9s30.2 16.2 33.5 32.3z"/><path class="st5" d="M137.8 66.7c2.9 14.2-6.2 28.1-20.4 31-7.8 1.6-16.6 1.7-21.8-23.5-5.6-27.3 8.7-39.9 8.7-39.9s30.2 16.3 33.5 32.4z"/><path class="st6" d="M104.3 34.4s30.1 16.2 33.5 32.3c2.9 14.2-6.2 28.1-20.4 31s-28.1-6.2-31-20.4c-3.5-16.8 17.9-42.9 17.9-42.9m0-2c-.6 0-1.2.3-1.6.7-.9 1.1-22 27-18.4 44.6 3.2 15.3 18.1 25.1 33.4 22 15.3-3.2 25.1-18.1 22-33.4-3.5-16.9-33.2-33-34.5-33.7-.2-.2-.5-.3-.9-.2z"/><path class="st7" d="M115.5 45.2c3.2 2.3 6.3 4.9 9.1 7.7m-16.1-12.5c1.2.7 2.5 1.6 3.9 2.6"/><path class="st8" d="M151.6 29.7c-3 0-5.4-2.4-5.4-5.4 0 3-2.4 5.4-5.4 5.4 3 0 5.4 2.4 5.4 5.4.1-2.9 2.5-5.4 5.4-5.4z"/><path class="st1" d="M181.3 150.8H92.7V29.7h121.6v121.1h-27.9"/><path class="st2" d="M97.8 34.8V79c3.4-6.2 11.2-8.4 17.4-5 .5.3 1.1.6 1.5 1-.2-4.1 3.1-7.6 7.2-7.8.5 0 1.1 0 1.6.1 1.6-6.5 8.1-10.5 14.6-8.9 5.4 1.3 9.3 6.2 9.3 11.7l10.7 2.3c0-8 6.4-14.4 14.4-14.4 6.7 0 12.5 4.6 14.1 11.1 4.8-.9 9.5 2.4 10.3 7.2.1.5.1 1.1.1 1.6h10.3V34.8H97.8z"/><path class="st3" d="M97.8 43.3v-8.5h26.3m21.6 88.3h-38.8m14.9-25.2c1.4-5.6 6.4-9.6 12.3-9.7m-36.3 21.6h9.9c0-6.6 5.3-12 11.9-12 .7 0 1.4.1 2.1.2M97.8 79c3.4-6.2 11.2-8.5 17.4-5.1 2.3 1.3 4.2 3.3 5.4 5.7m54.2 14.2c5.8-4.1 13.7-2.7 17.8 3 .4.6.8 1.2 1.1 1.9m9.2 1.2c-3.8-2.7-9.1-1.8-11.8 2-.3.4-.5.8-.7 1.3"/><path class="st3" d="M209.2 77.9h-10.3c0-4.9-3.9-8.9-8.9-8.9-.5 0-1.1 0-1.6.1-1.8-7.7-9.6-12.5-17.3-10.7-6.5 1.5-11.1 7.4-11.1 14.1l-10.7-2.3c0-6.7-5.4-12.1-12.1-12.1-5.6 0-10.4 3.8-11.7 9.3-4.1-.7-7.9 2-8.7 6.1-.1.5-.1 1.1-.1 1.6m-14.2 48h-4.7V58.9"/><path class="st3" d="M185.8 34.8h23.4v88.3h-58.9"/><path class="st0" d="M172.6 15.5H207m22.2 27.7h32m-24.1 13.2h9.4M58.3.8h32.9M11.7 59.1h11.2m228.7 48.1h12.7M2.1 37.8h30.3m194.9 104.6h7.5M249 87.8h5M217.6 15h13.2m-2.2 108.1h17.3M11.8 96.8h5"/><path class="st8" d="M73.3 42.6c-3 0-5.4-2.4-5.4-5.4 0 3-2.4 5.4-5.4 5.4 3 0 5.4 2.4 5.4 5.4 0-2.9 2.4-5.4 5.4-5.4z"/><circle class="st9" cx="129" cy="23.1" r="1.1"/><circle class="st9" cx="65" cy="71.5" r="1.1"/><circle class="st10" cx="80.6" cy="99.9" r="1.1"/><path class="st11" d="M173.5 91.7c.1-.7.1-1.3.1-2m-8.1 16.1c3.1-2.3 5.5-5.5 6.8-9.1"/><path class="st4" d="M179.8 85.9c0 14.5-11.8 26.2-26.2 26.2-14.5 0-26.2-11.8-26.2-26.2 0-17.2 26.2-38.5 26.2-38.5s26.2 22.1 26.2 38.5z"/><path class="st5" d="M179.8 85.9c0 14.5-11.7 26.2-26.2 26.2-7.9 0-16.6-1.7-16.6-27.3 0-27.9 16.6-37.3 16.6-37.3s26.2 22 26.2 38.4z"/><path class="st6" d="M153.5 47.5s26.2 21.9 26.2 38.5c0 14.5-11.8 26.2-26.2 26.2-14.5 0-26.2-11.8-26.2-26.2-.1-17.2 26.2-38.5 26.2-38.5m0-2c-.5 0-.9.2-1.3.4-1.1.9-27 22-27 40 0 15.6 12.7 28.3 28.3 28.3 15.6 0 28.3-12.7 28.3-28.3 0-17.2-25.9-39.1-27-40-.4-.2-.8-.4-1.3-.4z"/><path class="st7" d="M162.3 60.3c2.7 2.9 5.1 6.1 7.4 9.4m-13.3-15.4l3.3 3.3"/></svg>