<svg id="svg" xmlns="http://www.w3.org/2000/svg" viewBox="0 0 172 151.8"><style>.st0{fill:#d7e9ff;stroke:#d7e9ff;stroke-width:1.6;stroke-miterlimit:10}.st1{fill:none;stroke:#0069ff;stroke-width:2;stroke-linecap:round;stroke-linejoin:round}.st2{fill:#4894ff}.st3{fill:#8fbeff}.st4{fill:#d7e9ff}.st5{fill:#0069ff;stroke:#0069ff;stroke-width:2;stroke-linejoin:round}.st6,.st7{stroke-linecap:round}.st6{stroke-linejoin:round;fill:none;stroke:#fff;stroke-width:2}.st7{fill:#fff;stroke:#8fbeff;stroke-width:1.6;stroke-miterlimit:10}.st8,.st9{stroke-width:2;stroke-linejoin:round}.st8{stroke:#0069ff;stroke-linecap:round;fill:#fff}.st9{fill:#8fbeff}.st10,.st11,.st9{stroke:#0069ff}.st10{stroke-linejoin:round;fill:none;stroke-width:2}.st11{fill:#0069ff;stroke-width:1.6;stroke-linecap:round;stroke-miterlimit:10}</style><ellipse class="st0" cx="142.5" cy="148.2" rx="17.1" ry="2.8"/><ellipse class="st0" cx="38.9" cy="93.3" rx="10.4" ry="1.7"/><path class="st1" d="M43 58.9h46.3c6.9 0 12.5 5.6 12.5 12.5s-5.6 12.5-12.5 12.5H13.6C6.6 83.9 1 89.5 1 96.4S6.6 109 13.6 109h27.7c6.9 0 12.5 5.7 12.5 12.6 0 6.9 5.6 12.6 12.6 12.6 6.9 0 12.6-5.6 12.6-12.6 0-6.9 5.6-12.6 12.6-12.6h4.2"/><path class="st2" d="M171 104.7c0 15.8-12.8 28.6-28.6 28.6s-28.6-12.8-28.6-28.6c0-18.7 28.6-41.8 28.6-41.8S171 86.8 171 104.7z"/><path class="st3" d="M171 104.7c0 15.8-12.8 28.6-28.6 28.6-8.6 0-18.1-1.9-18.1-29.8 0-30.4 18.1-40.6 18.1-40.6S171 86.8 171 104.7z"/><path class="st3" d="M142.5 62.9s-16 12.9-24 27.2h47.9c-8.2-14.1-23.9-27.2-23.9-27.2z"/><path class="st4" d="M166.3 90.1c-8.1-14.1-23.8-27.2-23.8-27.2s-12.6 7.2-16.8 27.2h40.6z"/><ellipse class="st5" cx="142.4" cy="89" rx="22.1" ry="2.8"/><path class="st6" d="M149.9 76.9c2.9 3.2 5.6 6.6 8 10.2M143.5 70.3c1.1 1 2.3 2.3 3.6 3.6"/><path class="st1" d="M117.2 92.3c7.6-15.2 25.2-29.4 25.2-29.4S171 86.8 171 104.7c0 15.8-12.8 28.6-28.6 28.6-8.1 0-15.7-3.4-21.1-9.4"/><circle class="st7" cx="26.2" cy="109" r="8.4"/><circle class="st7" cx="101.8" cy="70.3" r="8.4"/><path class="st8" d="M111.2 99.2h6.8v19.7h-6.8z"/><path class="st9" d="M96.8 99.1h14.4v19.7H96.8z"/><path class="st5" d="M94.4 105.1h2.4v6.8h-2.4z"/><path class="st2" d="M67.5 42.8c0 15.8-12.8 28.6-28.6 28.6S10.4 58.6 10.4 42.8C10.4 24.1 38.9 1 38.9 1s28.6 23.9 28.6 41.8z"/><path class="st3" d="M67.5 42.8c0 15.8-12.8 28.6-28.6 28.6-8.6 0-18.1-1.9-18.1-29.8C20.9 11.2 38.9 1 38.9 1s28.6 23.9 28.6 41.8z"/><path class="st10" d="M67.5 42.8c0 15.8-12.8 28.6-28.6 28.6S10.4 58.6 10.4 42.8C10.4 24.1 38.9 1 38.9 1s28.6 23.9 28.6 41.8z"/><path class="st6" d="M47.4 14.9c2.9 3.2 5.6 6.6 8 10.2M41.1 8.4c1.1 1 2.3 2.3 3.6 3.6"/><circle class="st11" cx="26.2" cy="109" r="3.8"/><circle class="st11" cx="101.8" cy="70.3" r="3.8"/></svg>