<svg id="Layer_1" xmlns="http://www.w3.org/2000/svg" viewBox="0 0 341.8 152"><style>.st0,.st1{stroke-linecap:round}.st0{stroke-miterlimit:10;fill:none;stroke:#d7e9ff;stroke-width:1.6}.st1{fill:#fff;stroke:#0069ff;stroke-width:2;stroke-linejoin:round}.st2{fill:#8fbeff}.st3{fill:none;stroke:#4894ff;stroke-width:1.6;stroke-linecap:round;stroke-linejoin:round}.st4{fill:#d7e9ff}.st5{fill:#fff;stroke:#4894ff;stroke-width:1.6;stroke-linecap:round;stroke-linejoin:round}.st6,.st7{fill:none}.st6,.st7,.st8,.st9{stroke-linejoin:round}.st6{stroke-linecap:round;stroke:#d7e9ff;stroke-width:1.6}.st7,.st8{stroke:#0069ff;stroke-width:2}.st8{fill:#8fbeff}.st9{fill:#fff;stroke:#fff;stroke-width:1.6}.st10,.st11{stroke:#0069ff;stroke-width:2}.st10{stroke-linejoin:round;fill:#d7e9ff}.st11{fill:#4894ff}.st11,.st12,.st13{stroke-linejoin:round}.st12{stroke-width:2;stroke-linecap:round;fill:none;stroke:#fff}.st13{fill:#8fbeff;stroke:#8fbeff}.st13,.st14,.st15{stroke-width:1.6}.st14{stroke-linejoin:round;fill:#4894ff;stroke:#4894ff}.st15{fill:none;stroke:#fff;stroke-linecap:round;stroke-miterlimit:10}.st16{fill:#4894ff}.st17{fill:#0069ff}</style><title>_snapshotsDefault</title><path class="st0" d="M221.6 105.6h74.2M51.7 69.2h7.5M272.6 67h22.8M13.9 100.4h119.3m33.3-87.8h9.3m55.9 5.9h9.3m-125.3-5.9h42.9m116.8 120.5h20.5m-207.3 9.4h64.7m52.6-9.4h60.2m-240.3-3.9h100.1m-93.8-15.4H38m-35.7 0h22.1m252.9-25h9.2M47.4 33.2h219.1m-26.8 17h83m-19 16.8h9.1M85.5 12.6h13.8M13.9 69.2h26.5m263.4 36.4H341m-317.1-54h39.8m-62.9 0h14.8m279.5 37.2h28.3m-48.2-55.6h13.2m-37.8 86.5h22.7m-112.6 22.8h9.9"/><path class="st1" d="M107.3 122.5l-21-2.2 10.5-99.6 17.1 1.8m13.6 1.5l69.3 7.3-10.5 99.5-73.1-7.6"/><path transform="rotate(-83.979 142.536 66.516)" class="st2" d="M106 20.4h73v92.2h-73z"/><path class="st3" d="M95.9 69.5l4.6-44.2 91.7 9.7-7.7 72.6L92.9 98l2-19.1"/><path transform="rotate(-84.18 167.473 55.91)" class="st1" d="M117.4 5.6h100.1v100.5H117.4z"/><path transform="rotate(-84.18 169.284 38.455)" class="st4" d="M141-7.6h56.6v92.2H141z"/><ellipse transform="rotate(-84.18 178.274 25.358)" class="st5" cx="178.3" cy="25.4" rx="6.8" ry="6.8"/><path class="st6" d="M132.1 72.8l15.7 1.7m4.3.4l4.7.5m-33.6-8.5l8.1.8"/><path class="st3" d="M168 50.5l-.6 6.3m11.7-8.7l-1 9.7m-20.6-12.1l-1 9.9m49.9-4.7l-1 9.7m-75-17.5l-1 9.8"/><path class="st6" d="M180.6 78l22.5 2.3"/><path class="st7" d="M213.2 61.4l-91.7-9.3"/><path class="st3" d="M120.5 62l91.7 9.3"/><path transform="rotate(-84.18 191.004 66.476)" class="st8" d="M183.7 61.7h14.6v9.6h-14.6z"/><path transform="rotate(-84.18 142.345 61.509)" class="st8" d="M135.1 56.7h14.6v9.6h-14.6z"/><path transform="rotate(-84.232 191.486 50.49)" class="st8" d="M184.2 47.5h14.5v6h-14.5z"/><path transform="rotate(-84.18 193.817 38.88)" class="st8" d="M187.9 37h11.8v3.8h-11.8z"/><path transform="rotate(-84.18 143.828 47.018)" class="st8" d="M136.5 44h14.6v6h-14.6z"/><path transform="rotate(-84.18 145.157 33.921)" class="st8" d="M139.3 32h11.8v3.8h-11.8z"/><path class="st7" d="M192.5 32.9s-8.7 19.2-24.5 17.6-20.4-22.2-20.4-22.2m66.3 26.6c-13.6-3.6-17.6-21.7-17.6-21.7m-52.4-5.3s-7.6 16.9-21.6 17.7"/><path class="st3" d="M197 12.8l21 2.2-7.4 72.6-4.8-.4m-81.5-61.6l2-20 56.8 5.8m1.7 73.6l-65.9-6.7 3.9-38.4"/><path class="st1" d="M142.2 53.8l-8.6-28-96.1 29.5L66.8 151l96.2-29.5-18.8-61.2z"/><path transform="rotate(-17.06 97.46 79.443)" class="st4" d="M51.4 42.9h92.2v73H51.4z"/><path class="st3" d="M49.2 79.3l-6.5-21.2 8.7-2.7m96.2 30.2l4.6 15.3-88.1 27-11.3-36.8m10.7-39.4L130.8 31l14.7 47.8"/><path class="st9" d="M127.6 89.2l-20.4 22-3.9-12.7 20.4-21.9z"/><path class="st9" d="M78 104.5l29.2 6.7-3.9-12.7-29.2-6.7z"/><path class="st3" d="M123.7 76.6l3.9 12.6m-22.9 13.9l2.5 8.1M78 104.5l-.7-2.3M76 98.1l-1.9-6.3"/><path class="st10" d="M100.4 89.1l-29.2-6.7 20.4-22 29.2 6.7z"/><path class="st8" d="M123.7 76.6l-20.4 21.9-2.9-9.4 20.4-22z"/><path class="st11" d="M74.1 91.8l29.2 6.7-2.9-9.4-29.2-6.7z"/><path class="st12" d="M100.3 66l8 1.8m-14.9-3.4l3.4.7"/><path class="st9" d="M68.3 67.2c-2.3.7-4.8-.6-5.6-2.9.7 2.3-.6 4.8-2.9 5.6 2.3-.7 4.8.6 5.6 2.9-.8-2.4.5-4.9 2.9-5.6zm74.4 24.5c-2.3.7-4.8-.6-5.6-2.9.7 2.3-.6 4.8-2.9 5.6 2.3-.7 4.8.6 5.6 2.9-.8-2.3.5-4.8 2.9-5.6z"/><ellipse transform="rotate(-17.06 118.88 44.603)" class="st13" cx="118.9" cy="44.6" rx=".9" ry=".9"/><ellipse transform="rotate(-17.06 71.75 115.2)" class="st14" cx="71.8" cy="115.2" rx=".9" ry=".9"/><path class="st15" d="M223.2 75.2l-.6-1.5m-.7 14.9c1.6-2.8 2.3-6 2.1-9.2"/><path class="st1" d="M224.4 133.5l-70.6-19.9L181 17.2l96.8 27.3-27.2 96.3-22.2-6.2"/><path class="st4" d="M183.9 22.4L174 57.6c4.1-4.2 10.8-4.2 14.9-.2.4.4.7.7 1 1.1.8-3.3 4.1-5.4 7.5-4.6.4.1.8.3 1.2.4 2.7-4.8 8.8-6.5 13.6-3.8 4 2.3 6 7 4.7 11.4l8 4.3c1.8-6.3 8.4-10 14.7-8.3 5.3 1.5 8.9 6.5 8.7 12 4 .4 7 4 6.6 8.1 0 .4-.1.9-.3 1.3l8.2 2.3 9.7-34.3-88.6-24.9z"/><path class="st3" d="M182 29.2l1.9-6.8 21 5.9m-2.7 75.1l-30.9-8.7M188.8 78c2.4-4.2 7.3-6.2 11.9-5"/><path class="st3" d="M167.1 82.1l7.9 2.2c1.5-5.3 6.9-8.4 12.2-6.9.6.2 1.1.4 1.7.6M174 57.6c4.1-4.2 10.8-4.2 15-.1 1.6 1.6 2.6 3.6 3 5.7m39.9 23.4c5.5-2 11.6.9 13.5 6.4.2.6.4 1.2.5 1.8m7.1 3c-2.4-3-6.9-3.5-9.9-1.1-.3.3-.6.5-.9.8"/><path class="st3" d="M262.9 81.7l-8.2-2.3c1.1-3.9-1.1-8-5-9.1-.4-.1-.9-.2-1.3-.3.2-6.6-5-12.1-11.6-12.3-5.4-.2-10.3 3.4-11.8 8.6l-8-4.3c1.6-5.3-1.4-10.9-6.7-12.4-4.6-1.4-9.4.7-11.7 4.9-3.1-1.5-6.8-.2-8.3 2.9-.2.4-.3.8-.4 1.2m-22.1 35.1l-3.7-1 14.4-51.2"/><path class="st3" d="M253.9 42.1l18.7 5.3-19.8 70.3-46.9-13.2"/><path class="st16" d="M237.7 81.5c-3.3 11.5-15.2 18.3-26.8 15-11.5-3.3-18.3-15.2-15-26.8C199.7 56 225.4 45 225.4 45s16 23.3 12.3 36.5z"/><path class="st2" d="M237.7 81.5c-3.2 11.5-15.2 18.3-26.8 15-6.3-1.8-12.8-5.1-7.1-25.5 6.3-22.2 21.6-26 21.6-26s16 23.3 12.3 36.5z"/><path class="st17" d="M225.4 45s16 23.4 12.3 36.5c-3.3 11.5-15.2 18.3-26.8 15-11.5-3.3-18.3-15.2-15-26.8C199.7 56 225.4 45 225.4 45m0-1.7c-.2 0-.5 0-.7.1-1.1.5-26.4 11.5-30.5 25.8-3.5 12.4 3.7 25.3 16.2 28.9 12.4 3.5 25.3-3.7 28.9-16.2 3.9-13.7-11.8-36.9-12.5-37.9-.3-.4-.9-.7-1.4-.7z"/><path class="st12" d="M229.5 57.2c1.5 2.9 2.7 6 3.8 9.1M226.2 51c.6 1 1.2 2.1 1.9 3.3"/></svg>