<svg id="svg" xmlns="http://www.w3.org/2000/svg" viewBox="0 0 151.5 151.8"><style>.st0{fill:none;stroke:#d7e9ff;stroke-width:1.6;stroke-miterlimit:10}.st1{fill:#4894ff}.st2{fill:#8fbeff}.st3,.st4{fill:none;stroke:#fff;stroke-width:2;stroke-linecap:round;stroke-linejoin:round}.st4{stroke:#0069ff}.st5{fill:#d7e9ff;stroke:#d7e9ff;stroke-width:1.6;stroke-miterlimit:10}.st6,.st7,.st8{fill:#d7e9ff;stroke:#0069ff;stroke-width:2;stroke-linecap:round;stroke-linejoin:round}.st7,.st8{fill:none;stroke:#d7e9ff;stroke-width:1.6}.st8{fill:#8fbeff;stroke:#8fbeff}</style><title>tagging</title><path class="st0" d="M114.2 75.3c-.4 24.2-20.2 43.4-44.4 43.1-23.6-.4-42.7-19.5-43.1-43.1 0-28.7 43.7-64 43.7-64s43.8 36.5 43.8 64z"/><path class="st1" d="M106.8 74.6c-.3 20.1-16.9 36.1-37 35.7-19.6-.3-35.4-16.1-35.7-35.7 0-23.8 36.4-53.2 36.4-53.2s36.3 30.3 36.3 53.2z"/><path class="st2" d="M70.5 21.4s-3.8 3.1-9 8.1c-6.5 7.7-14 21.4-14 43.6 0 26.5 6.7 34.5 14.6 37 19.5 4.6 39.1-7.4 43.8-27 .7-2.8 1-5.6 1-8.4-.1-23-36.4-53.3-36.4-53.3z"/><path class="st3" d="M81.3 39.1c3.7 4.1 7.1 8.4 10.2 13M73.2 30.7c1.4 1.3 2.9 2.9 4.6 4.6"/><path class="st4" d="M103.2 90.4c-8.7 18.1-30.5 25.7-48.6 17-3.1-1.5-5.9-3.4-8.4-5.6M58.4 32.5c3.8-3.9 7.9-7.6 12.1-11.2 0 0 36.4 30.4 36.4 53.2 0 2.6-.3 5.1-.8 7.6M40.3 94.8c-4-6-6.2-13-6.2-20.2 0-11.9 9-25.1 18-35.4"/><ellipse class="st5" cx="70.5" cy="147.4" rx="21.7" ry="3.6"/><circle class="st6" cx="54.5" cy="87.5" r="4.3"/><circle class="st6" cx="67.7" cy="48.4" r="4.3"/><circle class="st6" cx="90.1" cy="71" r="4.3"/><circle class="st7" cx="90.1" cy="71" r="8.3"/><circle class="st7" cx="54.5" cy="87.5" r="8.3"/><circle class="st7" cx="67.7" cy="48.4" r="8.3"/><path class="st4" d="M114.2 95.2h36.3v14.2h-36.3zM3.2 1h31.3v14.2H3.2zM54.6 87.4l-27.3 27.3M67.7 48.4L34.5 15.2"/><path class="st8" d="M119.7 101h25.2v2.6h-25.2zM8.8 6.8H29v2.6H8.8zM6.5 120.5h15.2v2.6H6.5z"/><path class="st4" d="M1 114.7h26.3v14.2H1zM90.1 71l24.1 24.2"/></svg>