<svg id="Layer_1" xmlns="http://www.w3.org/2000/svg" viewBox="0 0 260.9 151.8"><style>.st0,.st1{stroke-linecap:round}.st0{stroke-miterlimit:10;fill:none;stroke:#d7e9ff;stroke-width:1.6}.st1,.st2,.st3{stroke-linejoin:round}.st1{fill:#fff;stroke:#0069ff;stroke-width:2}.st2,.st3{stroke-width:1.6}.st2{fill:none;stroke-linecap:round;stroke:#4894ff}.st3{stroke:#d7e9ff}.st3,.st4,.st5{fill:#d7e9ff}.st4,.st5,.st6,.st7,.st8{stroke-linejoin:round}.st4{stroke-linecap:round;stroke:#4894ff;stroke-width:1.6}.st5,.st6,.st7{stroke:#0069ff;stroke-width:2}.st8{stroke-width:2}.st6{fill:#8fbeff}.st7{fill:#4894ff}.st8{fill:none;stroke:#fff;stroke-linecap:round}.st9{fill:#d7e9ff}.st10{fill:#fff;stroke:#fff}.st10,.st11,.st12{stroke-width:1.6;stroke-linejoin:round}.st11{fill:#8fbeff;stroke:#8fbeff}.st12{fill:#4894ff;stroke:#4894ff}</style><title>_snapshotsVolumes</title><path class="st0" d="M168.6 111.1h56.5m-185.6-48h5.7m162.2-2.8h9.1M10.8 100.7h90.6M123 .8h7M84.3.8h32.6m92.6 139.4h15.6m-81.7 0h59.1m-182.7-4.7h76.1m-72.6-18.6H29m-27 0h14.2M211 86.7h7M36.2 19.6h166.6m-20.4 27.6h64.4m-24 13.1h16.4M52.4.8h10.5M10.8 63.1h20.1m200.2 48h29M18.4 41.8h30.2m-47.8 0h10m213.8 44.9h35.5m-50.7-67.1h10m5 107.4h17.3"/><path class="st1" d="M159.7 132.4l-73.8 8.4L72.3 20.7l40.4-4.6m17.7-2L192.9 7l13.6 120.1-40.3 4.6"/><path class="st2" d="M195.8 77.6l2.6 22.6-17.9 2m-4.9.6l-87.8 10-9.9-87.7 110.5-12.5 4.9 43.4"/><path class="st3" d="M171.7 81l-29.1 21.5-1.8-15.9 29.1-21.5z"/><path class="st3" d="M109.4 88l33.2 14.5-1.8-15.9-33.2-14.4z"/><path class="st2" d="M169.9 65.1l1.8 15.9m-30.2 11.3l1.1 10.2M109.4 88l-.3-2.8"/><path class="st4" d="M82.6 66.5c27.8 22.1 71.9-42.6 106.7-46.5l-.8-7.4L77.9 25.1l4.7 41.4z"/><ellipse transform="rotate(-24.314 171.034 43.552)" class="st4" cx="171.1" cy="43.5" rx="15.3" ry="8"/><path class="st2" d="M108.5 80.1l-.9-8"/><path class="st5" d="M139.5 74.7l-33.2-14.4 29.1-21.5 33.2 14.4z"/><path class="st6" d="M169.9 65.1l-29.1 21.5-1.3-11.9 29.1-21.5z"/><path class="st7" d="M107.6 72.1l33.2 14.5-1.3-11.9-33.2-14.4z"/><path class="st8" d="M144.4 47.3l9.2 4m-17-7.4l3.9 1.7"/><path class="st4" d="M110 110.3c-9 1-15.9-14-23.9-13.1l1.8 15.6 22.1-2.5z"/><path class="st1" d="M175.6 76.1l-19.9 74.7-117.3-31.2L69.5 2.8 186.8 34l-9.1 34.2"/><path transform="rotate(-75.102 115.51 65.895)" class="st9" d="M71.4 10.3h88.2v111.3H71.4z"/><path class="st2" d="M66.2 34.9L73.1 9l10.6 2.8m79.2 92.4l-5 18.6L50.4 94.2l12-44.9m36-33.6l82.2 21.9-15.5 58.3"/><path class="st10" d="M140.1 95.2l-34.9 9.4 4.1-15.4 34.9-9.4zM79.6 79.1l25.6 25.5 4.1-15.4-25.6-25.6z"/><path class="st2" d="M144.3 79.7l-4.2 15.5m-32.3-.5l-2.6 9.9M79.6 79.1l.7-2.8m1.3-5l2.1-7.7"/><path class="st5" d="M112.4 77.6L86.8 52.1l34.9-9.5 25.6 25.6z"/><path class="st6" d="M144.3 79.7l-35 9.4 3.1-11.5 34.9-9.4z"/><path class="st7" d="M83.7 63.6l25.6 25.5 3.1-11.5-25.6-25.5z"/><path class="st8" d="M127 53.8l7.1 7.1M121 47.8l3 3"/><path class="st10" d="M93.5 34.7c-2.9-.8-4.6-3.7-3.8-6.6-.8 2.9-3.7 4.6-6.6 3.8 2.9.8 4.6 3.7 3.8 6.6.8-2.9 3.7-4.6 6.6-3.8zm60.5 72.6c-2.9-.8-4.6-3.7-3.8-6.6-.8 2.9-3.7 4.6-6.6 3.8 2.9.8 4.6 3.7 3.8 6.6.8-2.8 3.7-4.5 6.6-3.8z"/><ellipse transform="rotate(-75.102 159.708 43.891)" class="st11" cx="159.7" cy="43.9" rx="1.1" ry="1.1"/><ellipse transform="rotate(-75.102 66.324 86.084)" class="st12" cx="66.3" cy="86.1" rx="1.1" ry="1.1"/></svg>