<svg xmlns="http://www.w3.org/2000/svg" viewBox="0 0 225.0988 190.23808" height="253.653" width="225.1pt"><path d="M22.41 114.24h184.14v75.004H22.41z" stroke="#8fbdff" stroke-miterlimit="10" stroke-width="1.592" fill="#d7e8ff"/><path d="M21.67 129.14l164.2.102M21.67 144.21h164.04M21.67 159.27l164.04-.031M21.67 174.34h164.04m-79.07-60.1v14.898m0 15.072v15.066m0 15.064v14.898m41.86-74.998v14.898m0 15.072v15.066m0 15.064v14.898M63.41 114.24v14.898m0 15.072v15.066m0 15.064v14.898M167.4 129.22v14.898m0 15.072v15.066m-39.02-45.036v14.898m0 15.072v15.066M85.09 129.22v14.898m0 15.072v15.066M42.57 159.19v15.066" stroke="#8fbdff" stroke-miterlimit="10" stroke-width="1.6" fill="none"/><path d="M206.54 189.24h-20.836v-75.004h20.836z" fill="#8fbdff"/><path d="M185.71 114.24v75.004m.14-60.004h20.691m-20.831 14.97l20.836.031M185.71 159.24h20.836m-20.836 15.1l20.836-.105" stroke="#4794ff" stroke-miterlimit="10" stroke-width="1.531" fill="none"/><g stroke-miterlimit="10" stroke-width="1.6"><path d="M165.54 99.26l20.164.082v14.898H165.54z" stroke="#8fbdff" fill="#d7e8ff"/><path d="M185.71 99.34h20.836v14.898H185.71z" stroke="#4794ff" fill="#8fbdff"/><path d="M95.96 99.26l20.16.082v14.898H95.96z" stroke="#8fbdff" fill="#d7e8ff"/><path d="M116.12 99.34h20.84v14.898h-20.84z" stroke="#4794ff" fill="#8fbdff"/></g><path d="M206.54 189.24h-20.836v-75.004h20.836z" stroke="#4794ff" stroke-miterlimit="10" stroke-width="1.531" fill="none"/><path d="M142.25 55.26c0 15.172-12.297 27.469-27.469 27.469-15.168 0-27.469-12.297-27.469-27.469 0-8.98 6.3-14.805 15.438-24.047 7.082-7.168 9-16.168 9-16.168s30.5 15.918 30.5 40.215" fill-rule="evenodd" fill="#8fbdff"/><path stroke-linejoin="round" d="M142.25 55.26c0 15.172-12.297 27.469-27.469 27.469-15.168 0-27.469-12.297-27.469-27.469 0-8.98 6.3-14.805 15.438-24.047 7.082-7.168 9-16.168 9-16.168s30.5 15.918 30.5 40.215z" stroke="#0068ff" stroke-miterlimit="10" stroke-width="1.6" fill="none"/><path d="M100.78 65.47c0 7.734 6.273 14.008 14.008 14.008 7.738 0 14.008-6.273 14.008-14.008 0-4.578-3.21-7.55-7.871-12.266-3.613-3.652-4.59-8.242-4.59-8.242S100.78 53.079 100.78 65.47" fill-rule="evenodd" fill="#d7e8ff"/><path d="M121.13 71.23a6.345 6.345 0 0 1-6.348 6.348 6.347 6.347 0 0 1-6.347-6.348c0-2.074 1.457-3.422 3.57-5.555 1.637-1.656 2.078-3.738 2.078-3.738s7.047 3.68 7.047 9.293" fill-rule="evenodd" fill="#fff"/><g stroke-miterlimit="10" stroke-width="1.6"><path d="M196.2 99.34v14.895M126.53 99.3v14.898" stroke="#4794ff" fill="none"/><path d="M22.41 99.26l20.164.082v14.898H22.41z" stroke="#8fbdff" fill="#d7e8ff"/><path d="M42.57 99.34l20.836.004v14.895H42.57z" stroke="#4794ff" fill="#8fbdff"/></g><g stroke-miterlimit="10" fill="none"><path d="M52.99 99.34v14.895m143.13 14.985v14.898m.08 15.332v14.895" stroke="#4794ff" stroke-width="1.6"/><path d="M21.62 114.24h163.3" stroke="#8fbdff" stroke-width="1.63"/></g><path d="M141 6.11a5.313 5.313 0 0 1-5.312-5.312 5.313 5.313 0 0 1-5.313 5.312 5.313 5.313 0 0 1 5.313 5.313A5.313 5.313 0 0 1 141 6.11" fill-rule="evenodd" fill="#d7e8ff"/><path stroke-linejoin="round" d="M141 6.11a5.313 5.313 0 0 1-5.312-5.312 5.313 5.313 0 0 1-5.313 5.312 5.313 5.313 0 0 1 5.313 5.313A5.313 5.313 0 0 1 141 6.11z" stroke="#d7e8ff" stroke-miterlimit="10" stroke-width="1.6" fill="none"/><path d="M150.73 80.95a1.112 1.112 0 1 1-1.11-1.113c.614 0 1.11.5 1.11 1.113" fill-rule="evenodd" fill="#8fbdff"/><path stroke-linejoin="round" d="M150.73 80.95a1.112 1.112 0 1 1-1.11-1.113c.614 0 1.11.5 1.11 1.113z" stroke="#8fbdff" stroke-miterlimit="10" stroke-width="1.6" fill="none"/><path d="M101.92 1.96a1.111 1.111 0 1 1-1.113-1.113c.613 0 1.113.496 1.113 1.113" fill-rule="evenodd" fill="#4794ff"/><g stroke-linejoin="round" stroke-miterlimit="10" fill="none"><path d="M101.92 1.96a1.111 1.111 0 1 1-1.113-1.113c.613 0 1.113.496 1.113 1.113z" stroke="#4794ff" stroke-width="1.6"/><path d="M22.4 189.24h201.68m-223.07 0h14.387" stroke="#0068ff" stroke-linecap="round" stroke-width="2"/></g></svg>