<svg id="Layer_1" data-name="Layer 1" xmlns="http://www.w3.org/2000/svg" width="144" height="100" viewBox="0 0 144 100"><defs><style>.cls-1,.cls-2,.cls-3{fill:none;stroke-linejoin:round;stroke-width:2px}.cls-1,.cls-3{stroke:#bcddfa}.cls-2{stroke:#1f8ced}.cls-3{stroke-linecap:round}</style></defs><title>insights-emptystate</title><path class="cls-1" d="M13 1h131M13 26h131M13 50h131M13 75h131M13 99h131"/><path class="cls-2" d="M7 1H0m7 25H0m7 24H0m7 25H0m7 24H0"/><path class="cls-3" d="M58 2v97M97 2v97m40-97v97M18 2v97"/><path class="cls-2" d="M13 58h17l3-23 5 36 3-12h18l3-6 4 10 5-9 4 8 4-8 2 5h30l7 10 6-10h20"/></svg>