<?xml version="1.0" encoding="utf-8"?>
<!-- Generator: Adobe Illustrator 19.2.0, SVG Export Plug-In . SVG Version: 6.00 Build 0)  -->
<svg version="1.1" id="Layer_1" xmlns="http://www.w3.org/2000/svg" xmlns:xlink="http://www.w3.org/1999/xlink" x="0px" y="0px"
	 viewBox="0 0 225.6 163.1" style="enable-background:new 0 0 225.6 163.1;" xml:space="preserve">
<style type="text/css">
	.st0{fill-rule:evenodd;clip-rule:evenodd;fill:#D7E9FF;}
	.st1{fill:none;stroke:#8FBEFF;stroke-width:1.6;stroke-linecap:round;stroke-miterlimit:10;}
	.st2{fill:none;stroke:#8FBEFF;stroke-width:1.6;stroke-linecap:round;stroke-miterlimit:10;stroke-dasharray:10.1565,10.1565;}
	.st3{fill-rule:evenodd;clip-rule:evenodd;fill:#FFFFFF;stroke:#8FBEFF;stroke-width:1.6;stroke-miterlimit:10;}
	
		.st4{fill-rule:evenodd;clip-rule:evenodd;fill:none;stroke:#0069FF;stroke-width:2;stroke-linecap:round;stroke-linejoin:round;stroke-miterlimit:10;}
	
		.st5{fill-rule:evenodd;clip-rule:evenodd;fill:#D7E9FF;stroke:#D7E9FF;stroke-width:1.6;stroke-linejoin:round;stroke-miterlimit:10;}
	
		.st6{fill-rule:evenodd;clip-rule:evenodd;fill:#4894FF;stroke:#4894FF;stroke-width:1.6;stroke-linejoin:round;stroke-miterlimit:10;}
	
		.st7{fill-rule:evenodd;clip-rule:evenodd;fill:#8FBEFF;stroke:#8FBEFF;stroke-width:1.6;stroke-linejoin:round;stroke-miterlimit:10;}
	
		.st8{fill-rule:evenodd;clip-rule:evenodd;fill:#D7E9FF;stroke:#4894FF;stroke-width:1.6;stroke-linejoin:round;stroke-miterlimit:10;}
	
		.st9{fill-rule:evenodd;clip-rule:evenodd;fill:none;stroke:#4894FF;stroke-width:1.6;stroke-linecap:round;stroke-linejoin:round;stroke-miterlimit:10;}
	.st10{fill:#0069FF;}
</style>
<g>
	<path class="st0" d="M211,51.7c-1.3-1.3-1.3-3.5,0-4.9c1.3-1.3,1.3-3.5,0-4.9c-1.3-1.3-1.3-3.5,0-4.9c0.7-0.7,1-1.6,1-2.4h-8.2
		H70.5c0,4-3.3,7.3-7.3,7.3s-7.3-3.3-7.3-7.3H32.2H24c0,0.9,0.3,1.8,1,2.4c1.3,1.3,1.3,3.5,0,4.9c-1.3,1.3-1.3,3.5,0,4.9
		c1.3,1.3,1.3,3.5,0,4.9c-1.3,1.3-1.3,3.5,0,4.9c1.3,1.3,1.3,3.5,0,4.9c-1.3,1.3-1.3,3.5,0,4.9s1.3,3.5,0,4.9s-1.3,3.5,0,4.9
		s1.3,3.5,0,4.9s-1.3,3.5,0,4.9s1.3,3.5,0,4.9s-1.3,3.5,0,4.9s1.3,3.5,0,4.9c-1.3,1.3-1.3,3.5,0,4.9c1.3,1.3,1.3,3.5,0,4.9
		c-1.3,1.3-1.3,3.5,0,4.9c1.3,1.3,1.3,3.5,0,4.9c-1.3,1.3-1.3,3.5,0,4.9c1.3,1.3,1.3,3.5,0,4.9c-0.7,0.7-1,1.6-1,2.4h8.2h23.7
		c0-4,3.3-7.3,7.3-7.3s7.3,3.3,7.3,7.3h133.3h8.2c0-0.9-0.3-1.8-1-2.4c-1.3-1.3-1.3-3.5,0-4.9c1.3-1.3,1.3-3.5,0-4.9
		c-1.3-1.3-1.3-3.5,0-4.9c1.3-1.3,1.3-3.5,0-4.9c-1.3-1.3-1.3-3.5,0-4.9c1.3-1.3,1.3-3.5,0-4.9c-1.3-1.3-1.3-3.5,0-4.9
		s1.3-3.5,0-4.9s-1.3-3.5,0-4.9s1.3-3.5,0-4.9s-1.3-3.5,0-4.9s1.3-3.5,0-4.9s-1.3-3.5,0-4.9s1.3-3.5,0-4.9c-1.3-1.3-1.3-3.5,0-4.9
		C212.3,55.2,212.3,53,211,51.7z"/>
	<g>
		<g>
			<line class="st1" x1="63.1" y1="41.9" x2="63.1" y2="47.9"/>
			<line class="st2" x1="63.1" y1="58" x2="63.1" y2="113.9"/>
			<line class="st1" x1="63.1" y1="119" x2="63.1" y2="125"/>
		</g>
	</g>
	<path class="st3" d="M184.8,44.6H90.4c-2.9,8-9.2,14.3-17.2,17.2v43.3c8,2.9,14.3,9.2,17.2,17.2h94.4c2.9-8,9.2-14.3,17.2-17.2
		V61.8C194,58.8,187.7,52.5,184.8,44.6z"/>
	<rect x="34" y="44.6" class="st3" width="19.2" height="77.7"/>
	<path class="st4" d="M211,51.7c-1.3-1.3-1.3-3.5,0-4.9c1.3-1.3,1.3-3.5,0-4.9c-1.3-1.3-1.3-3.5,0-4.9c0.7-0.7,1-1.6,1-2.4h-8.2
		H70.5c0,4-3.3,7.3-7.3,7.3s-7.3-3.3-7.3-7.3H32.2H24c0,0.9,0.3,1.8,1,2.4c1.3,1.3,1.3,3.5,0,4.9c-1.3,1.3-1.3,3.5,0,4.9
		c1.3,1.3,1.3,3.5,0,4.9c-1.3,1.3-1.3,3.5,0,4.9c1.3,1.3,1.3,3.5,0,4.9c-1.3,1.3-1.3,3.5,0,4.9s1.3,3.5,0,4.9s-1.3,3.5,0,4.9
		s1.3,3.5,0,4.9s-1.3,3.5,0,4.9s1.3,3.5,0,4.9s-1.3,3.5,0,4.9s1.3,3.5,0,4.9c-1.3,1.3-1.3,3.5,0,4.9c1.3,1.3,1.3,3.5,0,4.9
		c-1.3,1.3-1.3,3.5,0,4.9c1.3,1.3,1.3,3.5,0,4.9c-1.3,1.3-1.3,3.5,0,4.9c1.3,1.3,1.3,3.5,0,4.9c-0.7,0.7-1,1.6-1,2.4h8.2h23.7
		c0-4,3.3-7.3,7.3-7.3s7.3,3.3,7.3,7.3h133.3h8.2c0-0.9-0.3-1.8-1-2.4c-1.3-1.3-1.3-3.5,0-4.9c1.3-1.3,1.3-3.5,0-4.9
		c-1.3-1.3-1.3-3.5,0-4.9c1.3-1.3,1.3-3.5,0-4.9c-1.3-1.3-1.3-3.5,0-4.9c1.3-1.3,1.3-3.5,0-4.9c-1.3-1.3-1.3-3.5,0-4.9
		s1.3-3.5,0-4.9s-1.3-3.5,0-4.9s1.3-3.5,0-4.9s-1.3-3.5,0-4.9s1.3-3.5,0-4.9s-1.3-3.5,0-4.9s1.3-3.5,0-4.9c-1.3-1.3-1.3-3.5,0-4.9
		C212.3,55.2,212.3,53,211,51.7z"/>
	<path class="st5" d="M101,15.8c-2.9,0-5.3-2.4-5.3-5.3c0,2.9-2.4,5.3-5.3,5.3c2.9,0,5.3,2.4,5.3,5.3C95.7,18.2,98,15.8,101,15.8z"
		/>
	<path class="st5" d="M11.4,104.4c-2.9,0-5.3-2.4-5.3-5.3c0,2.9-2.4,5.3-5.3,5.3c2.9,0,5.3,2.4,5.3,5.3
		C6.1,106.8,8.5,104.4,11.4,104.4z"/>
	<path class="st5" d="M181.4,150c-2.9,0-5.3-2.4-5.3-5.3c0,2.9-2.4,5.3-5.3,5.3c2.9,0,5.3,2.4,5.3,5.3
		C176.1,152.4,178.5,150,181.4,150z"/>
	<circle class="st6" cx="108.3" cy="1.9" r="1.1"/>
	<circle class="st7" cx="160.6" cy="161.2" r="1.1"/>
	<circle class="st7" cx="223.6" cy="58.8" r="1.1"/>
	<g>
		<rect x="82" y="79.8" class="st8" width="22" height="7.2"/>
		<rect x="171.4" y="79.8" class="st8" width="22" height="7.2"/>
	</g>
	<line class="st9" x1="43.6" y1="53.9" x2="43.6" y2="112.9"/>
	<g>
		<path class="st10" d="M144.9,81.3c0,2.3-1.3,3.5-2.7,4.6c-1.2,1-2.1,1.7-2.1,2.9v0.9h-4.2v-1c0-1.8,1.2-3,2.6-4.2
			c1.1-0.9,2-1.8,2-3.1c0-1.6-1-2.6-2.6-2.6c-1.6,0-2.6,1-2.7,2.7l-4.2-0.3c0.1-3.8,2.9-6.2,6.9-6.2
			C142.2,75.1,144.9,77.5,144.9,81.3z M140.4,93.8c0,1.3-1.1,2.4-2.4,2.4c-1.3,0-2.4-1.1-2.4-2.4c0-1.4,1.1-2.4,2.4-2.4
			C139.3,91.4,140.4,92.4,140.4,93.8z"/>
	</g>
	<ellipse transform="matrix(0.9767 -0.2148 0.2148 0.9767 -14.9695 31.6161)" class="st4" cx="138" cy="84.7" rx="23.4" ry="23.4"/>
</g>
</svg>
